<?xml version="1.0" encoding="UTF-8" standalone="no"?>
<svg
        xmlns:dc="http://purl.org/dc/elements/1.1/"
        xmlns:cc="http://creativecommons.org/ns#"
        xmlns:rdf="http://www.w3.org/1999/02/22-rdf-syntax-ns#"
        xmlns:svg="http://www.w3.org/2000/svg"
        xmlns="http://www.w3.org/2000/svg"
        xmlns:sodipodi="http://sodipodi.sourceforge.net/DTD/sodipodi-0.dtd"
        xmlns:inkscape="http://www.inkscape.org/namespaces/inkscape"
        inkscape:version="1.0 (4035a4f, 2020-05-01)"
        sodipodi:docname="mir-accept-color.svg"
        id="svg80"
        version="1.1"
        viewBox="0 0 693.60556 594.32"
        text-rendering="geometricPrecision"
        shape-rendering="geometricPrecision"
        image-rendering="optimizeQuality"
        clip-rule="evenodd"
        fill-rule="evenodd"
        height="27"
        width="58">
    <metadata
            id="metadata84">
        <rdf:RDF>
            <cc:Work
                    rdf:about="">
                <dc:format>image/svg+xml</dc:format>
                <dc:type
                        rdf:resource="http://purl.org/dc/dcmitype/StillImage" />
                <dc:title></dc:title>
            </cc:Work>
        </rdf:RDF>
    </metadata>
    <sodipodi:namedview
            inkscape:current-layer="svg80"
            inkscape:window-maximized="0"
            inkscape:window-y="23"
            inkscape:window-x="163"
            inkscape:cy="13.483678"
            inkscape:cx="39.880075"
            inkscape:zoom="11.745283"
            fit-margin-bottom="0"
            fit-margin-right="0"
            fit-margin-left="0"
            fit-margin-top="0"
            showgrid="false"
            id="namedview82"
            inkscape:window-height="719"
            inkscape:window-width="1017"
            inkscape:pageshadow="2"
            inkscape:pageopacity="0"
            guidetolerance="10"
            gridtolerance="10"
            objecttolerance="10"
            borderopacity="1"
            bordercolor="#666666"
            pagecolor="#ffffff" />
    <defs
            id="defs68">
        <style
                id="style66">.fil0,.fil1{fill:#006848;fill-rule:nonzero}.fil1{fill:#fff}</style>
    </defs>
    <g
            transform="translate(-289.36723,-0.36)"
            id="Слой_x0020_1">
        <g
                id="_2659425720128">
            <path
                    id="path70"
                    class="fil0"
                    d="M 737.96,70.58 C 690.55,27.13 627.56,0.36 558.16,0.36 H -0.24 c 1.05,20.27 3.99,40 8.46,59.14 1.08,4.27 2.03,8.58 3.28,12.78 0.48,1.72 0.95,3.43 1.45,5.14 43.2,137.08 171.29,236.51 322.65,236.51 h 484.6 c 2.74,-15.31 4.42,-30.99 4.42,-47.1 0,-77.77 -33.52,-147.53 -86.66,-196.25 z" />
            <path
                    id="path72"
                    class="fil0"
                    d="m 1002.58,281.12 v -7.08 l 6.57,0.08 6.53,0.23 6.49,0.39 6.45,0.55 6.41,0.7 6.35,0.84 6.31,0.99 6.26,1.14 6.21,1.28 6.16,1.43 6.1,1.56 6.04,1.71 5.98,1.84 5.93,1.97 5.86,2.11 5.8,2.24 5.73,2.37 5.67,2.49 5.6,2.62 5.53,2.74 5.45,2.87 5.38,2.98 5.31,3.1 5.23,3.22 5.15,3.33 5.06,3.45 4.99,3.55 4.9,3.66 4.82,3.77 4.73,3.88 4.64,3.97 4.55,4.08 -4.79,5.22 -4.43,-3.97 -4.52,-3.87 -4.61,-3.78 -4.69,-3.67 -4.77,-3.57 -4.86,-3.46 -4.94,-3.36 -5.01,-3.24 -5.1,-3.13 -5.16,-3.02 -5.24,-2.91 -5.31,-2.79 -5.39,-2.67 -5.45,-2.55 -5.51,-2.43 -5.59,-2.3 -5.64,-2.18 -5.71,-2.05 -5.77,-1.93 -5.82,-1.79 -5.88,-1.66 -5.94,-1.52 -5.99,-1.39 -6.05,-1.25 -6.09,-1.1 -6.14,-0.97 -6.19,-0.82 -6.24,-0.68 -6.28,-0.53 -6.32,-0.38 -6.36,-0.23 z m -558.41,-7.08 h 558.41 v 7.08 H 444.17 l -3.54,-3.36 z m -3.54,3.72 -0.19,-3.72 h 3.73 z m 15.43,58.07 -6.86,1.76 -0.02,-0.08 -0.42,-1.81 -0.41,-1.82 -0.4,-1.82 -0.39,-1.82 -0.38,-1.83 -0.37,-1.83 -0.36,-1.84 -0.36,-1.84 -0.34,-1.84 -0.33,-1.84 -0.33,-1.85 -0.31,-1.86 -0.31,-1.85 -0.29,-1.86 -0.29,-1.86 -0.27,-1.87 -0.27,-1.87 -0.25,-1.87 -0.25,-1.88 -0.23,-1.88 -0.23,-1.88 -0.21,-1.89 -0.2,-1.89 -0.2,-1.89 -0.18,-1.89 -0.17,-1.9 -0.16,-1.9 -0.15,-1.91 -0.14,-1.91 -0.13,-1.91 -0.11,-1.92 -0.11,-1.92 7.07,-0.37 0.11,1.88 0.11,1.88 0.13,1.87 0.13,1.87 0.15,1.86 0.16,1.86 0.16,1.86 0.18,1.86 0.19,1.85 0.2,1.85 0.21,1.84 0.22,1.85 0.23,1.84 0.23,1.83 0.26,1.84 0.26,1.83 0.26,1.82 0.28,1.83 0.29,1.82 0.3,1.82 0.31,1.81 0.32,1.81 0.32,1.81 0.34,1.81 0.35,1.8 0.35,1.8 0.37,1.79 0.37,1.79 0.38,1.79 0.4,1.79 0.4,1.78 0.41,1.78 z m -6.86,1.76 -0.01,-0.05 -0.01,-0.03 z m 10.13,10.96 -6.83,1.87 0.02,0.08 -0.12,-0.41 -0.12,-0.41 -0.12,-0.41 -0.11,-0.41 -0.12,-0.4 -0.11,-0.42 -0.11,-0.41 -0.11,-0.4 -0.1,-0.41 -0.11,-0.41 -0.11,-0.4 -0.1,-0.41 -0.1,-0.41 -0.11,-0.4 -0.1,-0.41 -0.1,-0.4 -0.1,-0.41 -0.1,-0.4 -0.1,-0.41 -0.1,-0.4 -0.09,-0.41 -0.1,-0.39 -0.1,-0.4 -0.1,-0.4 -0.09,-0.4 -0.1,-0.4 -0.1,-0.4 -0.1,-0.4 -0.1,-0.39 -0.09,-0.4 -0.1,-0.39 -0.1,-0.39 6.86,-1.76 0.1,0.41 0.1,0.41 0.11,0.4 0.1,0.41 0.1,0.4 0.1,0.41 0.1,0.4 0.09,0.4 0.1,0.4 0.1,0.41 0.1,0.4 0.1,0.4 0.09,0.4 0.1,0.4 0.1,0.39 0.1,0.4 0.1,0.4 0.09,0.39 0.1,0.4 0.1,0.39 0.1,0.39 0.1,0.39 0.1,0.39 0.11,0.39 0.1,0.39 0.1,0.39 0.11,0.37 0.11,0.39 0.11,0.38 0.1,0.39 0.11,0.38 0.12,0.37 z m -0.02,-0.08 0.01,0.05 0.01,0.03 z m 1.43,5.1 -6.75,2.13 -0.02,-0.07 -0.05,-0.16 -0.05,-0.17 -0.04,-0.16 -0.05,-0.16 -0.05,-0.18 -0.04,-0.14 -0.05,-0.17 -0.05,-0.17 -0.05,-0.17 -0.04,-0.16 -0.05,-0.15 -0.04,-0.16 -0.05,-0.17 -0.05,-0.17 -0.04,-0.15 -0.05,-0.17 -0.05,-0.17 -0.04,-0.16 -0.05,-0.16 -0.04,-0.16 -0.05,-0.16 -0.04,-0.16 -0.05,-0.17 -0.04,-0.15 -0.05,-0.18 -0.05,-0.16 -0.04,-0.15 -0.04,-0.17 -0.05,-0.16 -0.04,-0.16 -0.05,-0.17 -0.04,-0.16 6.83,-1.87 0.04,0.16 0.05,0.16 0.04,0.16 0.04,0.16 0.04,0.15 0.05,0.17 0.05,0.17 0.04,0.14 0.04,0.16 0.05,0.17 0.04,0.16 0.05,0.16 0.04,0.16 0.05,0.16 0.04,0.16 0.04,0.15 0.05,0.16 0.05,0.17 0.04,0.15 0.04,0.15 0.05,0.16 0.05,0.17 0.04,0.16 0.05,0.15 0.04,0.15 0.05,0.16 0.05,0.17 0.04,0.15 0.04,0.16 0.05,0.16 0.05,0.15 0.04,0.16 z m -6.75,2.13 -0.02,-0.07 v 0.02 z m 326.02,231.9 v 7.08 l -14.26,-0.29 -14.12,-0.87 -13.96,-1.44 -13.78,-1.99 -13.61,-2.53 -13.4,-3.06 -13.21,-3.59 -12.98,-4.09 -12.76,-4.59 -12.51,-5.08 -12.27,-5.55 -12,-6.02 -11.72,-6.46 -11.44,-6.9 -11.14,-7.34 -10.84,-7.75 -10.51,-8.16 -10.18,-8.55 -9.84,-8.93 -9.48,-9.31 -9.12,-9.66 -8.74,-10.02 -8.35,-10.35 -7.95,-10.67 -7.54,-11 -7.12,-11.29 -6.68,-11.59 -6.24,-11.86 -5.78,-12.14 -5.32,-12.39 -4.83,-12.64 -4.34,-12.87 6.75,-2.13 4.26,12.6 4.73,12.38 5.2,12.13 5.66,11.89 6.11,11.62 6.54,11.34 6.98,11.06 7.38,10.77 7.79,10.45 8.18,10.14 8.56,9.81 8.93,9.47 9.28,9.11 9.64,8.75 9.97,8.37 10.3,7.99 10.6,7.59 10.91,7.19 11.21,6.76 11.48,6.33 11.75,5.89 12.01,5.43 12.25,4.97 12.49,4.5 12.71,4.01 12.93,3.51 13.13,3 13.32,2.48 13.5,1.95 13.67,1.4 13.83,0.85 z m 484.6,7.08 h -484.6 v -7.08 h 484.6 l 3.49,4.16 z m 3.49,-2.92 -0.52,2.92 h -2.97 z m -2.61,-47.72 h 7.09 l -0.01,1.53 -0.01,1.53 -0.03,1.53 -0.03,1.52 -0.05,1.52 -0.05,1.52 -0.06,1.52 -0.07,1.51 -0.08,1.51 -0.09,1.51 -0.1,1.5 -0.11,1.5 -0.12,1.5 -0.12,1.5 -0.13,1.5 -0.14,1.49 -0.15,1.49 -0.16,1.49 -0.17,1.48 -0.17,1.48 -0.18,1.48 -0.19,1.48 -0.19,1.47 -0.2,1.48 -0.21,1.47 -0.22,1.46 -0.22,1.47 -0.24,1.46 -0.23,1.46 -0.24,1.46 -0.26,1.45 -0.25,1.45 -6.97,-1.24 0.25,-1.42 0.24,-1.43 0.24,-1.42 0.23,-1.43 0.23,-1.43 0.22,-1.43 0.21,-1.43 0.2,-1.44 0.2,-1.43 0.19,-1.44 0.18,-1.44 0.18,-1.45 0.17,-1.44 0.16,-1.45 0.15,-1.45 0.15,-1.45 0.13,-1.45 0.13,-1.46 0.12,-1.45 0.12,-1.46 0.1,-1.46 0.1,-1.47 0.08,-1.46 0.08,-1.47 0.07,-1.47 0.06,-1.47 0.06,-1.48 0.04,-1.47 0.03,-1.48 0.02,-1.48 0.02,-1.48 z m -85.51,-193.64 4.79,-5.22 4.99,4.69 4.87,4.81 4.74,4.93 4.63,5.05 4.49,5.17 4.37,5.27 4.24,5.39 4.1,5.5 3.96,5.6 3.83,5.7 3.68,5.81 3.54,5.91 3.39,6 3.24,6.09 3.09,6.19 2.93,6.27 2.77,6.36 2.62,6.45 2.45,6.52 2.29,6.61 2.12,6.68 1.94,6.76 1.78,6.83 1.6,6.89 1.42,6.97 1.24,7.03 1.05,7.09 0.87,7.15 0.68,7.2 0.49,7.27 0.3,7.31 0.1,7.36 h -7.09 l -0.09,-7.17 -0.29,-7.12 -0.48,-7.07 -0.66,-7.02 -0.85,-6.96 -1.02,-6.91 -1.21,-6.84 -1.38,-6.78 -1.56,-6.71 -1.73,-6.65 -1.89,-6.58 -2.06,-6.5 -2.23,-6.43 -2.39,-6.36 -2.54,-6.27 -2.7,-6.19 -2.86,-6.11 -3.01,-6.03 -3.15,-5.93 -3.3,-5.84 -3.45,-5.75 -3.58,-5.66 -3.73,-5.55 -3.86,-5.46 -4,-5.35 -4.12,-5.25 -4.25,-5.14 -4.39,-5.03 -4.5,-4.92 -4.63,-4.8 -4.74,-4.69 z" />
            <path
                    id="path74"
                    class="fil1"
                    d="M 591.79,154.58 H 487.47 v 54.26 h 33.08 v -30.56 h 13.95 l 18.75,30.56 h 37.59 l -22.07,-33.12 c 10.61,-3.79 19.03,-11.5 23.02,-21.14 z M 581.1,115.06 c -6.48,-5.94 -15.08,-9.59 -24.57,-9.59 h -71.16 c 0.14,2.76 0.55,5.46 1.15,8.08 0.15,0.58 0.28,1.17 0.45,1.74 0.07,0.24 0.13,0.47 0.2,0.7 5.9,18.74 23.41,32.32 44.09,32.32 h 61.08 c 0.38,-2.09 0.61,-4.23 0.61,-6.43 0,-10.63 -4.58,-20.16 -11.85,-26.82 z m -205.05,3.99 -13.7,47.5 h -2.36 l -13.7,-47.5 c -2.32,-8.05 -9.68,-13.58 -18.05,-13.58 h -32.85 v 103.37 h 32.89 v -61.09 h 2.35 l 18.79,61.09 h 23.5 l 18.79,-61.09 h 2.35 v 61.09 h 32.89 V 105.47 h -32.84 c -8.38,0 -15.74,5.53 -18.06,13.58 z m 65,89.79 h 32.89 V 105.47 h -32.89 z" />
            <path
                    id="path76"
                    class="fil0"
                    d="m 705.88,450.31 -27.33,-60.17 -27.48,60.17 z m -30.9,-68.64 h 7.43 l 48.43,104.73 h -8.47 L 709.15,457.29 H 647.8 l -13.22,29.11 h -8.02 z m 63.51,67.15 v -0.3 c 0,-21.24 16.93,-39.66 38.62,-39.66 14.27,0 23.18,6.53 30.31,13.96 l -5.2,5.35 c -6.54,-6.68 -13.96,-12.48 -25.26,-12.48 -17.23,0 -30.6,14.41 -30.6,32.53 v 0.3 c 0,18.28 13.82,32.83 31.2,32.83 10.7,0 19.02,-5.49 25.4,-12.63 l 5.05,4.46 c -7.72,8.77 -16.93,15.01 -30.9,15.01 -21.83,0 -38.62,-18.12 -38.62,-39.37 z m 78.42,0 v -0.3 c 0,-21.24 16.93,-39.66 38.62,-39.66 14.27,0 23.18,6.53 30.31,13.96 l -5.2,5.35 c -6.54,-6.68 -13.96,-12.48 -25.26,-12.48 -17.23,0 -30.6,14.41 -30.6,32.53 v 0.3 c 0,18.28 13.82,32.83 31.2,32.83 10.7,0 19.02,-5.49 25.4,-12.63 l 5.05,4.46 c -7.72,8.77 -16.93,15.01 -30.9,15.01 -21.83,0 -38.62,-18.12 -38.62,-39.37 z m 141.59,-3.87 c -1.04,-15.29 -9.81,-29.41 -27.19,-29.41 -15,0 -26.59,12.63 -27.93,29.41 z m -62.84,3.72 v -0.3 c 0,-21.98 15.45,-39.51 35.95,-39.51 21.24,0 34.76,17.23 34.76,39.66 0,1.34 0,1.79 -0.15,2.97 h -62.84 c 1.34,18.87 14.86,29.86 29.71,29.86 11.74,0 19.76,-5.2 26,-11.88 l 5.05,4.45 c -7.72,8.32 -16.78,14.27 -31.34,14.27 -19.91,0 -37.14,-15.9 -37.14,-39.52 z m 155.85,0.15 v -0.3 c 0,-19.9 -13.82,-32.68 -29.72,-32.68 -15.74,0 -30.9,13.22 -30.9,32.53 v 0.3 c 0,19.46 15.16,32.54 30.9,32.54 16.49,0 29.72,-12.04 29.72,-32.39 z m -67.45,-38.18 h 7.28 v 16.93 c 6.54,-9.95 16.19,-18.71 31.2,-18.71 18.27,0 36.84,14.71 36.84,39.36 v 0.3 c 0,24.66 -18.57,39.67 -36.84,39.67 -15.16,0 -24.96,-8.62 -31.2,-18.12 v 40.1 h -7.28 z m 95.13,56.3 v -49.62 h -10.99 v -6.68 h 10.99 v -24.21 h 7.28 v 24.21 h 26.59 v 6.68 h -26.59 v 48.88 c 0,10.85 6.39,14.71 15.15,14.71 3.72,0 6.84,-0.74 11.14,-2.68 v 6.84 c -3.86,1.78 -7.57,2.67 -12.32,2.67 -11.74,0 -21.25,-6.39 -21.25,-20.8 z" />
        </g>
    </g>
</svg>
