<svg xmlns="http://www.w3.org/2000/svg" width="78" height="16" viewBox="0 0 117 24">
    <g fill="none" fill-rule="evenodd" opacity=".5">
        <path fill="#004043" fill-rule="nonzero" d="M21.464 17.137c-.042 2.078-1.826 3.926-4.002 3.938H.526c0-5.638-.033-11.276 0-16.917.006-.283.015-.342.039-.505.26-1.869 2-3.42 3.965-3.432h6.474v1.921c-2.167 0-4.334-.015-6.498 0-1.08.02-2.045.946-2.05 2.07v14.941c5.01 0 10.02.03 15.03 0 1.075-.02 2.027-.925 2.051-2.043v-6.344h1.93c0 2.126.011 4.248-.003 6.371z"/>
        <path fill="#00CCD7" d="M18.268 2.143H13.24V.22h7.317c.175.015.222.036.314.071.353.148.582.429.594.89V8.8h-1.93V3.594L13.92 9.126 12.563 7.76l5.705-5.617z"/>
        <path fill="#004043" fill-rule="nonzero" d="M28.319 17.906c1.029.737 2.677 1.237 4.398 1.237 3.61 0 5.978-2.237 5.978-5.762 0-3.167-1.914-5.43-5.116-5.43-1.29 0-2.583.574-3.347 1.263V2.237H28.32v15.669zm4.83-8.167c2.078 0 3.513 1.38 3.513 3.786 0 2.404-1.673 3.833-3.849 3.833-.932 0-1.721-.167-2.58-.737v-5.503c.524-.666 1.673-1.379 2.915-1.379zM48.973 16.24c-.692.64-1.911 1.118-3.298 1.118-2.104 0-3.587-1.192-3.755-3.214h8.273a6.24 6.24 0 0 0 .119-1.286c0-2.952-2.223-4.906-4.997-4.906-3.537 0-5.545 2.477-5.545 5.596 0 3.38 2.27 5.595 5.76 5.595 1.435 0 2.99-.452 4.042-1.404l-.599-1.5zm-3.752-6.5c1.864 0 3.012 1.093 3.106 2.856H41.8c.216-1.644 1.458-2.857 3.42-2.857zM57.413 16c0 .977-.91 1.477-1.914 1.477-1.075 0-2.485-.644-3.108-1.356l-1.075 1.356c.502.762 2.223 1.666 3.968 1.666 2.152 0 4.16-.977 4.16-3.237 0-3.762-5.808-2.692-5.808-4.954 0-.713.644-1.334 1.721-1.334 1.123 0 2.056.478 2.7 1.048l.908-1.452c-.644-.618-1.935-1.262-3.704-1.262-2.127 0-3.659 1.144-3.659 3.025 0 3.93 5.811 2.856 5.811 5.023zM61.046 14.833c0 2.74.956 4.263 3.37 4.263 1.196 0 2.175-.43 2.75-.905l-.598-1.477c-.383.286-.956.596-1.698.596-1.362 0-1.912-.977-1.912-2.666V9.977h3.945V8.192h-3.945V5.214h-1.912v9.619zM82.806 23.668h1.912v-5.262c.765.5 1.888.737 3.037.737 3.371 0 5.593-2.5 5.593-5.762 0-3.167-1.912-5.43-4.972-5.43-1.48 0-2.916.645-3.658 1.5v-1.26h-1.912v15.477zm5.02-13.929c2.223 0 3.49 1.546 3.49 3.715 0 2.26-1.434 3.904-3.729 3.904-1.027 0-1.911-.192-2.87-.833v-5.31c.67-.834 1.843-1.476 3.109-1.476zM103.078 18.906h1.912v-9.74c-1.098-.689-2.797-1.214-4.518-1.214-3.514 0-6.047 2.477-6.047 5.596 0 3.38 2.079 5.595 5.33 5.595 1.315 0 2.557-.595 3.323-1.356v1.119zm-3.012-1.548c-2.127 0-3.61-1.381-3.61-3.714 0-2.144 1.577-3.905 3.993-3.905.885 0 1.792.213 2.629.69v5.525c-.598.69-1.77 1.404-3.012 1.404zM116.943 18.787V8.192h-1.911v7.57c-.67.859-1.841 1.596-3.086 1.596-1.96 0-2.77-1.192-2.77-3.214V8.192h-1.915v6.38c0 3.142 1.58 4.571 3.968 4.571 1.698 0 3.06-.856 3.803-1.762V19c0 2.12-1.245 3.073-3.134 3.073a5.315 5.315 0 0 1-3.106-.978l-.884 1.526c.62.427 1.84 1.237 4.112 1.237 2.652 0 4.923-1.43 4.923-5.07z"/>
        <path fill="#00CCD7" d="M79.973 19.107v-1.533h-7.386c.02-.873.818-1.745 1.888-2.333a67.113 67.113 0 0 0 1.722-1.017c1.238-.765 2.329-1.37 3.021-2.493a3.258 3.258 0 0 0 .525-1.8c0-1.087-.44-1.959-1.302-2.618-.86-.66-1.993-.998-3.358-.998-2.077 0-3.796.979-4.7 2.387l1.532.874c.652-.946 1.806-1.604 3.001-1.604 1.574 0 2.686.855 2.686 2.084 0 2.94-7.281 3.635-7.281 8.089 0 .267.042.588.104.962h9.548z"/>
    </g>
</svg>
