<?xml version="1.0" encoding="UTF-8" standalone="no"?>
<svg
   xmlns:dc="http://purl.org/dc/elements/1.1/"
   xmlns:cc="http://creativecommons.org/ns#"
   xmlns:rdf="http://www.w3.org/1999/02/22-rdf-syntax-ns#"
   xmlns:svg="http://www.w3.org/2000/svg"
   xmlns="http://www.w3.org/2000/svg"
   viewBox="0 0 195.70667 160.85333"
   height="25"
   width="30.41"
   xml:space="preserve"
   id="svg2"
   version="1.1"><metadata
     id="metadata8"><rdf:RDF><cc:Work
         rdf:about=""><dc:format>image/svg+xml</dc:format><dc:type
           rdf:resource="http://purl.org/dc/dcmitype/StillImage" /></cc:Work></rdf:RDF></metadata><defs
     id="defs6"><clipPath
       id="clipPath20"
       clipPathUnits="userSpaceOnUse"><path
         id="path18"
         d="M 0,0 H 1467.76 V 1206 H 0 Z" /></clipPath></defs><g
     transform="matrix(1.3333333,0,0,-1.3333333,0,160.85333)"
     id="g10"><g
       transform="scale(0.1)"
       id="g12"><g
         id="g14"><g
           clip-path="url(#clipPath20)"
           id="g16"><path
             id="path22"
             style="fill:#000000;fill-opacity:1;fill-rule:nonzero;stroke:none"
             d="m 1134.95,161.211 v -2.352 h 2.17 c 0.5,0 0.89,0.102 1.19,0.289 0.29,0.192 0.44,0.493 0.44,0.903 0,0.379 -0.15,0.668 -0.44,0.871 -0.3,0.187 -0.69,0.289 -1.19,0.289 z m 2.19,1.648 c 1.14,0 2.01,-0.25 2.62,-0.75 0.62,-0.507 0.92,-1.187 0.92,-2.058 0,-0.731 -0.24,-1.34 -0.73,-1.813 -0.49,-0.468 -1.18,-0.758 -2.09,-0.867 l 2.89,-3.332 h -2.26 l -2.67,3.301 h -0.87 v -3.301 h -1.88 v 8.82 z m -0.56,-11.847 c 1.03,0 1.98,0.187 2.87,0.578 0.89,0.39 1.66,0.922 2.33,1.582 0.67,0.668 1.19,1.457 1.57,2.359 0.38,0.899 0.57,1.86 0.57,2.891 0,1.019 -0.19,1.976 -0.57,2.879 -0.38,0.898 -0.9,1.687 -1.57,2.359 -0.67,0.66 -1.44,1.18 -2.33,1.57 -0.89,0.379 -1.84,0.571 -2.87,0.571 -1.04,0 -2.01,-0.192 -2.92,-0.571 -0.91,-0.39 -1.69,-0.91 -2.36,-1.57 -0.67,-0.672 -1.19,-1.461 -1.57,-2.359 -0.38,-0.903 -0.57,-1.86 -0.57,-2.879 0,-1.031 0.19,-1.992 0.57,-2.891 0.38,-0.902 0.9,-1.691 1.57,-2.359 0.67,-0.66 1.45,-1.192 2.36,-1.582 0.91,-0.391 1.88,-0.578 2.92,-0.578 z m 0,16.91 c 1.34,0 2.59,-0.25 3.77,-0.75 1.17,-0.5 2.19,-1.172 3.07,-2.043 0.87,-0.859 1.57,-1.867 2.07,-3.02 0.5,-1.16 0.76,-2.39 0.76,-3.687 0,-1.313 -0.26,-2.543 -0.76,-3.692 -0.5,-1.14 -1.2,-2.152 -2.07,-3.011 -0.88,-0.86 -1.9,-1.539 -3.07,-2.047 -1.18,-0.5 -2.43,-0.762 -3.77,-0.762 -1.36,0 -2.64,0.262 -3.83,0.762 -1.18,0.508 -2.21,1.187 -3.08,2.047 -0.87,0.859 -1.56,1.871 -2.06,3.011 -0.51,1.149 -0.76,2.379 -0.76,3.692 0,1.297 0.25,2.527 0.76,3.687 0.5,1.153 1.19,2.161 2.06,3.02 0.87,0.871 1.9,1.543 3.08,2.043 1.19,0.5 2.47,0.75 3.83,0.75 z m -143.787,83.957 c 4.191,0 10.187,-0.797 14.777,-2.598 l -6.39,-19.57 c -4.395,1.797 -8.785,2.394 -12.981,2.394 -13.582,0 -20.371,-8.785 -20.371,-24.562 V 154.02 h -20.769 v 95.46 h 20.57 v -11.582 c 5.391,8.387 13.18,13.981 25.164,13.981 z M 920.91,230.508 h -33.949 v -43.137 c 0,-9.582 3.394,-15.98 13.781,-15.98 5.391,0 12.184,1.8 18.375,5.398 l 5.988,-17.777 c -6.589,-4.59 -16.972,-7.391 -25.96,-7.391 -24.567,0 -33.153,13.18 -33.153,35.348 v 43.539 h -19.371 v 18.972 h 19.371 l -0.004,28.958 h 20.969 l 0.004,-28.958 h 33.949 z m -99.801,-5.391 c -5.789,3.594 -17.574,8.188 -29.754,8.188 -11.386,0 -18.175,-4.196 -18.175,-11.184 0,-6.391 7.191,-8.187 16.179,-9.387 l 9.786,-1.394 c 20.769,-2.996 33.347,-11.789 33.347,-28.559 0,-18.172 -15.972,-31.16 -43.535,-31.16 -15.574,0 -29.957,4 -41.34,12.391 l 9.785,16.168 c 6.993,-5.391 17.375,-9.981 31.754,-9.981 14.18,0 21.77,4.192 21.77,11.582 0,5.391 -5.395,8.391 -16.774,9.981 l -9.789,1.398 c -21.367,3 -32.949,12.59 -32.949,28.164 0,18.973 15.574,30.555 39.742,30.555 15.176,0 28.957,-3.395 38.942,-9.988 z M 662.547,210.141 c 2.195,13.777 10.582,23.164 25.359,23.164 13.383,0 21.969,-8.387 24.168,-23.164 z m 71.094,-8.391 c -0.2,29.758 -18.571,50.129 -45.332,50.129 -27.961,0 -47.532,-20.371 -47.532,-50.129 0,-30.359 20.371,-50.129 48.93,-50.129 14.379,0 27.559,3.598 39.141,13.379 l -10.184,15.379 c -7.988,-6.391 -18.176,-9.981 -27.762,-9.981 -13.379,0 -25.562,6.192 -28.558,23.364 h 70.898 c 0.199,2.597 0.399,5.187 0.399,7.988 z m 331.409,30.602 c -4.25,0 -8.21,-0.747 -11.86,-2.243 -3.66,-1.496 -6.81,-3.589 -9.47,-6.277 -2.66,-2.695 -4.75,-5.918 -6.28,-9.672 -1.53,-3.754 -2.29,-7.89 -2.29,-12.41 0,-4.52 0.76,-8.66 2.29,-12.41 1.53,-3.75 3.62,-6.981 6.28,-9.668 2.66,-2.692 5.81,-4.781 9.47,-6.281 3.65,-1.5 7.61,-2.243 11.86,-2.243 4.25,0 8.21,0.743 11.86,2.243 3.66,1.5 6.83,3.589 9.52,6.281 2.69,2.687 4.8,5.918 6.33,9.668 1.53,3.75 2.3,7.89 2.3,12.41 0,4.52 -0.77,8.656 -2.3,12.41 -1.53,3.754 -3.64,6.977 -6.33,9.672 -2.69,2.688 -5.86,4.781 -9.52,6.277 -3.65,1.496 -7.61,2.243 -11.86,2.243 z m 0,19.64 c 7.38,0 14.21,-1.281 20.49,-3.84 6.28,-2.558 11.71,-6.082 16.29,-10.566 4.59,-4.484 8.18,-9.785 10.77,-15.898 2.59,-6.118 3.89,-12.762 3.89,-19.938 0,-7.18 -1.3,-13.82 -3.89,-19.93 -2.59,-6.121 -6.18,-11.422 -10.77,-15.91 -4.58,-4.48 -10.01,-8 -16.29,-10.558 -6.28,-2.563 -13.11,-3.84 -20.49,-3.84 -7.37,0 -14.2,1.277 -20.48,3.84 -6.29,2.558 -11.7,6.078 -16.25,10.558 -4.56,4.488 -8.13,9.789 -10.72,15.91 -2.59,6.11 -3.89,12.75 -3.89,19.93 0,7.176 1.3,13.82 3.89,19.938 2.59,6.113 6.16,11.414 10.72,15.898 4.55,4.484 9.96,8.008 16.25,10.566 6.28,2.559 13.11,3.84 20.48,3.84 z M 543.336,201.75 c 0,16.777 10.984,30.555 28.957,30.555 17.176,0 28.758,-13.18 28.758,-30.555 0,-17.371 -11.582,-30.551 -28.758,-30.551 -17.973,0 -28.957,13.781 -28.957,30.551 z m 77.289,0 v 47.73 h -20.773 v -11.582 c -6.59,8.586 -16.575,13.981 -30.157,13.981 -26.761,0 -47.73,-20.973 -47.73,-50.129 0,-29.16 20.969,-50.129 47.73,-50.129 13.582,0 23.567,5.399 30.157,13.981 V 154.02 h 20.773 z M 503.594,154.02 v 59.914 c 0,22.566 -14.379,37.746 -37.547,37.945 -12.18,0.199 -24.766,-3.598 -33.551,-16.977 -6.59,10.586 -16.976,16.977 -31.555,16.977 -10.187,0 -20.171,-2.996 -27.961,-14.18 v 11.781 h -20.769 v -95.46 h 20.969 v 52.921 c 0,16.579 9.187,25.364 23.367,25.364 13.781,0 20.769,-8.985 20.769,-25.16 V 154.02 h 20.973 v 52.921 c 0,16.579 9.586,25.364 23.363,25.364 14.18,0 20.969,-8.985 20.969,-25.16 V 154.02 h 20.973" /><path
             id="path24"
             style="fill:#7673c0;fill-opacity:1;fill-rule:nonzero;stroke:none"
             d="m 576.379,412.004 h 315 v 566.063 h -315 z" /><path
             id="path26"
             style="fill:#eb001b;fill-opacity:1;fill-rule:nonzero;stroke:none"
             d="m 596.383,695.035 c 0,114.84 53.765,217.113 137.496,283.031 -61.234,48.204 -138.496,76.974 -222.477,76.974 -198.808,0 -359.972,-161.185 -359.972,-360.005 0,-198.82 161.164,-360 359.972,-360 83.981,0 161.243,28.762 222.477,76.969 -83.731,65.918 -137.496,168.191 -137.496,283.031" /><path
             id="path28"
             style="fill:#00a1df;fill-opacity:1;fill-rule:nonzero;stroke:none"
             d="m 1305.09,471.957 v 13.973 h -3.65 l -4.19,-9.61 -4.2,9.61 h -3.65 v -13.973 h 2.58 v 10.539 l 3.93,-9.086 h 2.67 l 3.94,9.11 v -10.563 z m -23.1,0 v 11.59 h 4.67 v 2.359 h -11.9 v -2.359 h 4.67 v -11.59 h 2.56" /><path
             id="path30"
             style="fill:#00a1df;fill-opacity:1;fill-rule:nonzero;stroke:none"
             d="m 1316.33,695.035 c 0,-198.82 -161.16,-360 -359.971,-360 -83.98,0 -161.246,28.762 -222.48,76.969 83.734,65.918 137.5,168.191 137.5,283.031 0,114.84 -53.766,217.113 -137.5,283.031 61.234,48.204 138.5,76.974 222.48,76.974 198.811,0 359.971,-161.185 359.971,-360.005" /></g></g></g></g></svg>