<?xml version="1.0" encoding="UTF-8" standalone="no"?>
<svg
   xmlns:dc="http://purl.org/dc/elements/1.1/"
   xmlns:cc="http://creativecommons.org/ns#"
   xmlns:rdf="http://www.w3.org/1999/02/22-rdf-syntax-ns#"
   xmlns:svg="http://www.w3.org/2000/svg"
   xmlns="http://www.w3.org/2000/svg"
   xmlns:sodipodi="http://sodipodi.sourceforge.net/DTD/sodipodi-0.dtd"
   xmlns:inkscape="http://www.inkscape.org/namespaces/inkscape"
   viewBox="0 0 240 85.290665"
   height="20"
   width="56"
   xml:space="preserve"
   id="svg2"
   version="1.1"
   sodipodi:docname="mastercard-securecode-seeklogo.com.svg"
   inkscape:version="0.92.3 (2405546, 2018-03-11)"><sodipodi:namedview
     pagecolor="#ffffff"
     bordercolor="#666666"
     borderopacity="1"
     objecttolerance="10"
     gridtolerance="10"
     guidetolerance="10"
     inkscape:pageopacity="0"
     inkscape:pageshadow="2"
     inkscape:window-width="1247"
     inkscape:window-height="1025"
     id="namedview106"
     showgrid="false"
     fit-margin-top="0"
     fit-margin-left="0"
     fit-margin-right="0"
     fit-margin-bottom="0"
     inkscape:zoom="0.81439394"
     inkscape:cx="120.00001"
     inkscape:cy="42.645345"
     inkscape:window-x="1313"
     inkscape:window-y="27"
     inkscape:window-maximized="0"
     inkscape:current-layer="svg2" /><metadata
     id="metadata8"><rdf:RDF><cc:Work
         rdf:about=""><dc:format>image/svg+xml</dc:format><dc:type
           rdf:resource="http://purl.org/dc/dcmitype/StillImage" /><dc:title></dc:title></cc:Work></rdf:RDF></metadata><defs
     id="defs6" /><g
     transform="matrix(1.3333333,0,0,-1.3333333,-287.99999,570.64532)"
     id="g10"><g
       transform="scale(0.1)"
       id="g12"><path
         id="path14"
         style="fill:#fd0c15;fill-opacity:1;fill-rule:evenodd;stroke:none"
         d="m 3861.51,4028.99 c 0,19.5 15.39,35.4 33.86,35.4 18.97,0 33.85,-15.9 33.85,-35.4 0,-19.49 -14.88,-35.39 -33.85,-35.39 -18.47,-0.51 -33.86,15.39 -33.86,35.39 z m 33.86,-27.69 c 14.36,0 25.65,12.31 25.65,27.18 0,14.88 -11.8,27.19 -25.65,27.19 -14.37,0 -25.66,-12.31 -25.66,-27.19 0,-14.87 11.29,-27.18 25.66,-27.18 z m -4.62,11.79 h -7.18 v 31.29 h 12.82 c 2.57,0 5.65,0 7.7,-1.54 2.56,-1.54 3.59,-4.61 3.59,-7.69 0,-3.59 -2.05,-6.67 -5.13,-7.69 l 5.64,-13.85 h -7.69 l -4.62,12.31 h -5.13 z m 0,17.44 h 4.11 c 1.53,0 3.07,0 4.1,0.51 1.02,0.52 1.54,2.06 1.54,3.6 0,1.02 -0.52,2.56 -1.54,3.07 -1.03,0.52 -3.08,0.52 -4.1,0.52 h -3.6 l -0.51,-7.7 v 0"
         inkscape:connector-curvature="0" /><path
         id="path16"
         style="fill:#fd0c15;fill-opacity:1;fill-rule:evenodd;stroke:none"
         d="m 3376.76,4265.47 -9.24,-60.53 c -20,10.77 -34.88,14.88 -50.78,14.88 -42.06,0 -71.81,-43.09 -71.81,-104.14 0,-42.06 20,-67.71 52.83,-67.71 13.85,0 29.24,4.62 48.22,14.37 l -9.75,-63.61 c -21.03,-6.16 -34.37,-8.21 -50.27,-8.21 -61.04,0 -99,46.17 -99,120.04 0,99.51 52.32,169.28 127.73,169.28 9.74,0 18.47,-1.03 25.65,-3.08 l 23.59,-6.16 c 6.16,-2.56 7.7,-3.08 12.83,-5.13 v 0"
         inkscape:connector-curvature="0" /><path
         id="path18"
         style="fill:#fd0c15;fill-opacity:1;fill-rule:evenodd;stroke:none"
         d="m 3188.5,4223.92 c -1.54,0.51 -3.59,0.51 -5.64,0.51 -18.47,0 -29.24,-9.74 -46.68,-36.93 l 5.12,34.37 h -51.29 l -34.88,-226.22 h 56.94 c 20.52,138.5 25.64,162.1 52.83,162.1 1.54,0 2.05,0 4.1,0 5.13,27.18 11.8,47.19 21.55,65.66 l -2.05,0.51 v 0"
         inkscape:connector-curvature="0" /><path
         id="path20"
         style="fill:#fd0c15;fill-opacity:1;fill-rule:evenodd;stroke:none"
         d="m 2849.43,3998.73 c -15.39,-5.13 -27.7,-7.69 -40.53,-7.69 -28.72,0 -44.62,17.44 -44.62,49.75 0,6.16 0.51,13.34 1.54,20.52 l 3.58,22.06 2.57,17.95 24.62,154.41 h 56.43 l -6.67,-33.35 h 29.24 l -8.21,-54.89 -28.73,0.01 -14.87,-94.39 c -0.51,-4.1 -1.03,-7.18 -1.03,-9.23 0,-11.8 6.16,-16.93 19.5,-16.93 6.66,0 11.28,0.51 15.38,2.05 l -8.2,-50.27 v 0"
         inkscape:connector-curvature="0" /><path
         id="path22"
         style="fill:#fd0c15;fill-opacity:1;fill-rule:evenodd;stroke:none"
         d="m 2625.77,4150.57 c 0,-28.73 13.34,-48.22 43.09,-63.1 22.57,-11.28 26.68,-14.87 26.68,-25.13 0,-13.85 -10.26,-20.52 -32.32,-20.52 -16.93,0 -32.32,2.56 -50.78,9.23 l -7.7,-52.32 2.57,-0.52 10.26,-2.05 c 3.59,-0.51 8.2,-1.53 14.87,-2.05 13.34,-1.02 24.11,-2.05 31.29,-2.05 59.51,0 87.21,24.11 87.21,75.41 0,30.78 -11.29,49.24 -40.01,63.09 -23.6,11.29 -26.16,13.85 -26.16,24.62 0,12.32 9.23,18.47 27.69,18.47 11.29,0 26.17,-1.54 40.53,-3.59 l 8.21,52.32 c -14.88,2.57 -36.93,4.62 -49.76,4.62 -64.12,0 -86.18,-34.37 -85.67,-76.43 v 0"
         inkscape:connector-curvature="0" /><path
         id="path24"
         style="fill:#fd0c15;fill-opacity:1;fill-rule:evenodd;stroke:none"
         d="m 3828.68,3996.16 h -53.86 l 2.56,22.06 c -15.38,-17.44 -31.8,-25.13 -52.32,-25.13 -41.55,0 -68.74,37.44 -68.74,93.87 0,75.41 42.07,139.01 92.34,139.01 22.05,0 38.47,-9.74 54.37,-30.77 l 12.31,79.51 h 55.92 z m -83.61,52.84 c 26.67,0 45.14,31.29 45.14,76.43 0,28.73 -10.77,44.63 -30.27,44.63 -25.65,0 -44.11,-31.81 -44.11,-75.92 0,-29.75 9.74,-45.14 29.24,-45.14 v 0"
         inkscape:connector-curvature="0" /><path
         id="path26"
         style="fill:#fd0c15;fill-opacity:1;fill-rule:evenodd;stroke:none"
         d="m 3028.96,4000.78 c -19.49,-6.15 -37.95,-9.23 -58.47,-9.23 -63.1,0 -96.44,34.88 -96.44,101.56 0,77.98 42.06,134.91 99,134.91 46.68,0 76.44,-32.31 76.44,-82.58 0,-16.42 -2.06,-32.83 -7.19,-55.92 h -112.85 c -0.51,-3.59 -0.51,-5.13 -0.51,-7.18 0,-26.67 16.93,-40.01 49.76,-40.01 20,0 38.47,4.62 58.99,14.36 z m -31.8,134.91 c 0.52,4.62 0.52,8.72 0.52,11.29 0,18.47 -9.75,29.23 -26.68,29.23 -17.95,0 -30.78,-14.36 -35.91,-40.52 h 62.07 v 0"
         inkscape:connector-curvature="0" /><path
         id="path28"
         style="fill:#fd0c15;fill-opacity:1;fill-rule:evenodd;stroke:none"
         d="m 2398.02,3996.16 h -56.43 l 32.32,213.91 -72.84,-213.91 h -38.48 l -4.61,212.37 -34.37,-212.37 h -52.84 l 44.12,278.03 h 81.56 l 2.05,-172.35 55.4,172.35 h 88.23 l -44.11,-278.03"
         inkscape:connector-curvature="0" /><path
         id="path30"
         style="fill:#fd0c15;fill-opacity:1;fill-rule:evenodd;stroke:none"
         d="m 2544.21,4096.71 c -6.15,0.51 -8.72,1.02 -12.82,1.02 -32.32,0 -48.22,-11.8 -48.22,-34.37 0,-13.85 8.21,-23.08 20.52,-23.08 22.57,0 39.5,23.08 40.52,56.43 z m 41.04,-100.55 h -47.19 l 1.02,23.6 c -14.36,-18.98 -33.34,-27.19 -59.5,-27.19 -30.78,0 -51.81,25.14 -51.81,61.56 0,55.4 36.93,87.2 99.52,87.2 6.66,0 14.87,-0.51 23.08,-1.54 1.54,7.7 2.05,10.78 2.05,14.88 0,14.88 -9.74,20.52 -36.42,20.52 -15.9,0 -34.37,-2.56 -47.2,-6.67 l -7.17,-2.56 -5.13,-1.54 7.69,50.78 c 28.21,8.72 47.19,12.31 67.71,12.31 48.73,0 74.38,-23.08 74.38,-66.17 0,-11.29 -1.03,-19.5 -4.62,-45.14 l -11.28,-80.54 -2.05,-14.36 -1.54,-11.28 -1.02,-8.21 -0.52,-5.65 v 0"
         inkscape:connector-curvature="0" /><path
         id="path32"
         style="fill:#fd0c15;fill-opacity:1;fill-rule:evenodd;stroke:none"
         d="m 3474.73,4096.71 c -5.64,0.51 -8.71,1.02 -12.82,1.02 -32.32,0 -48.73,-11.8 -48.73,-34.37 0,-13.85 8.21,-23.08 20.52,-23.08 23.08,0 40.01,23.08 41.03,56.43 z m 41.04,-100.55 h -47.19 l 1.03,23.6 c -14.37,-18.98 -33.35,-27.19 -59.51,-27.19 -30.78,0 -51.81,25.14 -51.81,61.56 0,55.4 36.94,87.2 99.51,87.2 6.16,0 14.88,-0.51 23.09,-1.54 1.54,7.7 2.05,10.78 2.05,14.88 0,14.88 -9.74,20.52 -36.42,20.52 -15.9,0 -34.37,-2.56 -47.19,-6.67 l -8.21,-2.05 -5.13,-1.54 7.7,50.78 c 28.21,8.72 47.19,12.31 67.71,12.31 48.73,0 74.38,-23.08 74.38,-66.17 0,-11.28 -1.03,-19.49 -4.62,-45.14 l -11.8,-80.02 -1.54,-14.37 -1.53,-11.28 -1.03,-7.7 0.51,-7.18 v 0"
         inkscape:connector-curvature="0" /><path
         id="path34"
         style="fill:#fd0c15;fill-opacity:1;fill-rule:evenodd;stroke:none"
         d="m 3674.28,4223.92 c -1.54,0.51 -3.59,0.51 -5.64,0.51 -18.47,0 -29.25,-9.74 -46.69,-36.93 l 5.14,34.37 h -51.3 l -34.88,-226.22 h 56.94 c 20.51,138.5 25.64,162.1 52.83,162.1 1.54,0 1.54,0 4.11,0 5.12,27.18 12.31,47.19 21.54,65.66 l -2.05,0.51 v 0"
         inkscape:connector-curvature="0" /><path
         id="path36"
         style="fill:#f3ae12;fill-opacity:1;fill-rule:evenodd;stroke:none"
         d="m 3436.26,3776.1 c 0,-51.3 -15.9,-81.56 -41.03,-81.56 -18.47,-0.51 -29.25,20.01 -29.25,50.27 0,35.91 16.42,76.94 42.07,76.94 21.03,0 28.21,-22.05 28.21,-45.65 z m 55.92,-0.51 c 0,56.94 -28.22,101.57 -81.05,101.57 -61.05,0 -100.54,-53.87 -100.54,-133.37 0,-56.95 23.59,-103.63 81.04,-103.63 57.97,0 100.55,41.04 100.55,135.43 v 0"
         inkscape:connector-curvature="0" /><path
         id="path38"
         style="fill:#f3ae12;fill-opacity:1;fill-rule:evenodd;stroke:none"
         d="m 3328.54,3916.66 -8.72,-60.53 c -18.98,10.76 -32.32,14.87 -47.19,14.87 -39.5,0 -67.2,-43.09 -67.2,-104.13 0,-42.06 18.46,-67.71 49.24,-67.71 13.34,0 27.7,4.61 45.14,14.36 l -9.23,-63.61 c -19.49,-6.16 -32.32,-8.2 -47.19,-8.2 -56.94,0 -92.85,46.16 -92.85,120.03 0,99.51 49.24,169.28 119.52,169.28 9.23,0 16.93,-1.03 23.6,-3.08 l 21.54,-6.15 c 7.18,-2.06 8.72,-2.57 13.34,-5.13 v 0"
         inkscape:connector-curvature="0" /><path
         id="path40"
         style="fill:#f3ae12;fill-opacity:1;fill-rule:evenodd;stroke:none"
         d="m 2978.18,3875.62 c -1.54,0.51 -3.59,0.51 -5.64,0.51 -17.44,0 -27.19,-9.75 -43.6,-36.93 l 5.13,34.37 h -47.71 l -32.32,-226.22 h 52.84 c 18.98,138.5 24.11,162.1 49.25,162.1 1.53,0 1.53,0 4.1,-0.52 4.61,27.19 11.29,47.2 20,65.66 l -2.05,1.03 v 0"
         inkscape:connector-curvature="0" /><path
         id="path42"
         style="fill:#f3ae12;fill-opacity:1;fill-rule:evenodd;stroke:none"
         d="m 3669.66,3649.4 h -50.27 l 2.56,22.06 c -14.36,-17.44 -29.75,-25.14 -49.24,-25.14 -38.48,0 -64.12,37.45 -64.12,93.87 0,75.41 39.5,139.02 86.18,139.02 20.52,0 36.42,-9.75 50.78,-31.29 l 11.8,79.51 h 52.32 z m -78.48,53.35 c 25.13,0 42.06,31.29 42.06,76.43 0,28.73 -9.75,44.11 -28.21,44.11 -24.11,0 -41.04,-31.29 -41.04,-75.91 0,-29.75 9.23,-44.63 27.19,-44.63 v 0"
         inkscape:connector-curvature="0" /><path
         id="path44"
         style="fill:#f3ae12;fill-opacity:1;fill-rule:evenodd;stroke:none"
         d="m 2481.63,3650.43 c -17.95,-6.16 -35.39,-9.24 -54.37,-9.24 -58.99,0 -89.77,34.88 -89.77,101.57 0,77.45 39.5,134.91 92.33,134.91 43.61,0 71.31,-31.8 71.31,-82.59 0,-16.42 -2.06,-32.83 -6.68,-55.91 H 2389.3 c -0.51,-3.59 -0.51,-5.13 -0.51,-7.18 0,-26.17 15.9,-39.5 46.67,-39.5 18.98,0 35.91,4.62 54.89,14.36 z m -29.75,134.91 c 0,4.61 0.51,8.71 0.51,11.28 0,18.47 -9.23,29.24 -25.13,29.24 -16.93,0 -28.73,-14.36 -33.86,-40.52 h 58.48 v 0"
         inkscape:connector-curvature="0" /><path
         id="path46"
         style="fill:#f3ae12;fill-opacity:1;fill-rule:evenodd;stroke:none"
         d="m 3111.55,3650.43 c -17.95,-6.16 -35.39,-9.24 -54.37,-9.24 -59.5,0 -90.29,34.88 -90.29,101.57 0,77.45 39.5,134.91 92.34,134.91 43.6,0 71.82,-31.8 71.82,-82.59 0,-16.42 -2.05,-32.83 -6.67,-55.91 h -105.16 c -0.52,-3.59 -0.52,-5.13 -0.52,-7.18 0,-26.17 15.91,-39.5 46.69,-39.5 18.98,0 35.91,4.62 54.88,14.36 z m -29.75,134.91 c 0.51,4.61 0.51,8.71 0.51,11.28 0,18.47 -9.23,29.24 -25.13,29.24 -16.93,0 -28.73,-14.36 -33.86,-40.52 h 58.48 v 0"
         inkscape:connector-curvature="0" /><path
         id="path48"
         style="fill:#f3ae12;fill-opacity:1;fill-rule:evenodd;stroke:none"
         d="m 3850.23,3650.43 c -18.47,-6.16 -35.91,-9.24 -54.38,-9.24 -58.99,0 -90.28,34.88 -90.28,101.57 0,77.45 39.5,134.91 92.85,134.91 43.6,0 71.29,-31.8 71.29,-82.59 0,-16.42 -2.04,-32.83 -6.66,-55.91 h -105.16 c -0.51,-3.59 -0.51,-5.13 -0.51,-7.18 0,-26.17 15.9,-39.5 46.68,-39.5 18.98,0 35.91,4.62 54.89,14.36 z m -29.76,134.91 c 0,4.61 0.51,8.71 0.51,11.28 0,18.47 -9.23,29.24 -25.13,29.24 -16.93,0 -28.72,-14.36 -33.85,-40.52 h 58.47 v 0"
         inkscape:connector-curvature="0" /><path
         id="path50"
         style="fill:#f3ae12;fill-opacity:1;fill-rule:evenodd;stroke:none"
         d="m 2324.66,3865.36 c -10.26,7.18 -24.62,12.82 -44.11,12.82 -21.55,0 -38.48,-4.61 -38.48,-27.18 0,-40.02 77.98,-25.14 77.98,-111.32 0,-78.48 -51.3,-99 -97.98,-99 -20.52,0 -44.63,6.67 -62.07,14.87 l 12.82,57.46 c 10.78,-9.75 31.81,-16.42 49.76,-16.42 16.93,0 42.58,4.62 42.58,33.86 0,45.65 -77.97,28.73 -77.97,108.75 0,73.35 45.65,94.9 89.77,94.9 24.62,0 48.22,-3.6 61.55,-12.83 l -13.85,-55.91 v 0"
         inkscape:connector-curvature="0" /><path
         id="path52"
         style="fill:#f3ae12;fill-opacity:1;fill-rule:evenodd;stroke:none"
         d="m 2636.55,3650.43 c -10.78,-5.13 -25.65,-8.73 -47.2,-8.73 -46.16,0 -74.89,46.17 -74.89,102.6 0,73.86 41.55,132.34 102.59,132.34 13.34,0 33.86,-5.64 49.76,-14.87 l -11.79,-53.86 c -11.29,7.69 -23.09,12.3 -35.4,12.3 -28.21,0 -48.73,-26.16 -48.73,-72.32 0,-26.68 14.88,-48.73 37.96,-48.73 13.85,0 23.59,3.07 35.39,9.74 l -7.69,-58.47 v 0"
         inkscape:connector-curvature="0" /><path
         id="path54"
         style="fill:#f3ae12;fill-opacity:1;fill-rule:evenodd;stroke:none"
         d="m 2834.55,3707.37 c -2.56,-19.5 -5.13,-38.48 -6.67,-58.48 h -50.78 l 4.1,36.41 h -0.51 c -15.9,-24.62 -32.31,-41.55 -61.56,-41.55 -31.8,0 -49.24,33.86 -49.24,77.46 0,15.39 1.02,23.6 4.1,47.2 l 14.37,104.64 h 56.94 l -15.39,-105.16 c -1.54,-11.28 -3.59,-22.57 -3.59,-34.36 0,-13.34 6.15,-26.68 21.54,-25.65 23.09,0 36.93,28.21 41.04,61.55 l 15.9,103.62 h 54.89 l -25.14,-165.68 v 0"
         inkscape:connector-curvature="0" /><path
         id="path56"
         style="fill:#f3ae12;fill-opacity:1;fill-rule:evenodd;stroke:none"
         d="m 3903.06,3651.45 h -8.72 v 37.45 h -12.31 v 8.21 h 33.34 v -8.21 h -12.31 v -37.45"
         inkscape:connector-curvature="0" /><path
         id="path58"
         style="fill:#f3ae12;fill-opacity:1;fill-rule:evenodd;stroke:none"
         d="m 3960,3651.45 h -8.21 v 37.96 l -7.69,-37.96 h -8.21 l -7.69,37.96 v -37.96 h -8.21 v 45.66 h 12.82 l 7.19,-35.91 h 0.51 l 7.18,35.91 H 3960 v -45.66"
         inkscape:connector-curvature="0" /></g></g></svg>