<?xml version="1.0" encoding="utf-8"?>
<!-- Generator: Adobe Illustrator 23.0.4, SVG Export Plug-In . SVG Version: 6.00 Build 0)  -->
<svg version="1.1" id="Ebene_1" xmlns="http://www.w3.org/2000/svg" xmlns:xlink="http://www.w3.org/1999/xlink" x="0px" y="0px"
	 viewBox="0 0 152 119" style="enable-background:new 0 0 152 119;" xml:space="preserve" width="30px" height="24px">
<style type="text/css">
	.st0{fill:#004FA3;}
	.st1{fill:#73726F;}
	.st2{fill:none;}
	.st3{fill:#CBA55F;}
	.st4{fill:#ED174C;}
	.st5{opacity:0.31;fill:#825729;}
</style>
<g>
	<g>
		<g>
			<path class="st0" d="M147.3,111.9H3.9c-2.4,0-4.3-1.9-4.3-4.3V4.3C-0.4,1.9,1.5,0,3.9,0h143.5c2.4,0,4.3,1.9,4.3,4.3v103.3
				C151.6,110,149.7,111.9,147.3,111.9z M3.9,2.1c-1.2,0-2.1,1-2.1,2.1v103.3c0,1.2,1,2.1,2.1,2.1h143.5c1.2,0,2.1-1,2.1-2.1V4.3
				c0-1.2-1-2.1-2.1-2.1H3.9z"/>
		</g>
	</g>
	<g id="XMLID_5_">
		<path id="XMLID_6_" class="st1" d="M141.9,85.8l-6-1.4l4.6-19.9c2-8.7-3.5-17.4-12.2-19.4c-8.7-2-17.4,3.5-19.4,12.2l-4.6,19.9
			l-6-1.4l4.6-19.9c2.8-12,14.8-19.6,26.8-16.8c12,2.8,19.6,14.8,16.8,26.8L141.9,85.8z"/>
	</g>
	<g>
		<path class="st0" d="M69.9,81.3c-0.8-0.4-1.8-0.7-3-0.7c-2.9,0-4.6,1.3-5.3,1.9l1-6.1h-4L55.8,93h4l1.5-9.1c1-0.8,2.2-1.4,3.6-1.4
			c0.7,0,1.3,0.2,1.7,0.6c0.7,0.7,0.6,1.6,0.4,2.8L65.9,93h4l1.4-8C71.4,84,71.7,82.3,69.9,81.3z"/>
	</g>
	<g>
		<path class="st0" d="M80.6,80.4c-4.6,0-6.2,2.1-7,3.2l1,0.4c0.7-0.6,2-1.8,4.6-1.8c1.2,0,2.8,0.3,3.3,1.6c0.2,0.5,0.2,1,0.1,1.6
			h0.1L82,89.2H82l-0.2,1.4c-0.9,0.4-1.9,0.9-3.3,0.9c-2,0-2.6-1.1-2.4-2.1c0.3-1.5,2-2.3,3.8-2.3c0.6,0,1,0.1,1.5,0.2l0.3-1.7
			c-0.7-0.2-1.5-0.3-2.5-0.3c-3.6,0-6.8,1.6-7.3,4.3c-0.4,2.2,1.4,3.9,4.5,3.9c2.9,0,4.6-1.2,5.4-1.7L81.3,93h3.9l1.2-7.3
			c0.2-1.1,0.4-2.7-0.9-3.9C84.8,81.1,83.2,80.4,80.6,80.4z"/>
	</g>
	<g>
		<g>
			<polygon class="st2" points="91.5,81 87.3,81 90.1,90 91.9,82.2 			"/>
			<path class="st3" d="M123.9,88.4c0.2,1,1,2.1,3.6,2.1c2.4,0,3.5-0.9,4.7-1.9c0.1-0.1,0.2-0.1,0.3-0.2L123.9,88.4
				C124,88.4,123.9,88.4,123.9,88.4z"/>
			<path class="st3" d="M129.2,83.9c-0.4-0.4-1.1-0.4-1.6-0.4c-1.3,0-2,0.3-2.5,0.9h4.4C129.4,84.2,129.3,84,129.2,83.9z"/>
			<path class="st3" d="M117.5,86.6c0.1-0.7,0.3-1.4,0.7-2.1h-2.5l-0.8,4.6c-0.1,0.9,0,1.1,0,1.2c0,0,0,0,0,0
				c0.2,0.3,0.5,0.5,1.1,0.5c0.5,0,0.8-0.1,1.2-0.2l0.1,0c0.1,0,0.2,0,0.2,0c0.1,0,0.3,0,0.4,0.1C117.4,89.5,117.2,88.1,117.5,86.6z
				"/>
			<path class="st3" d="M146.7,77L98.1,65.8c-1.3-0.3-2.6,0.5-2.9,1.8l-2.9,12.6c0.1,0.1,0.2,0.3,0.2,0.4l1.3,4.9l3.9-5.2
				c0.2-0.3,0.5-0.4,0.9-0.4h1.3c0.5,0,0.9,0.3,1,0.7l1.8,5l3.2-5.2c0.2-0.3,0.5-0.5,0.9-0.5h3.3l0.4-2.4c0.1-0.5,0.5-0.9,1.1-0.9h4
				c0.3,0,0.6,0.1,0.8,0.4c0.2,0.2,0.3,0.6,0.2,0.9l-0.3,2h3.1c0.3,0,0.6,0.1,0.8,0.4c0.2,0.2,0.3,0.6,0.2,0.9l-0.1,0.5
				c0.1-0.1,0.2-0.2,0.3-0.2c1.9-1.4,4.4-2.1,7.2-2.1c2.6,0,4.7,0.6,6.1,1.9c2.3,2.1,1.9,4.7,1.7,6.2l0,0c-0.1,0.5-0.5,0.9-1.1,0.9
				h-1.4l0.9,0.4c0.3,0.1,0.5,0.4,0.6,0.7c0.1,0.3,0,0.6-0.1,0.9c-0.9,1.4-2.9,4.3-8.8,4.3c-3.8,0-5.9-1.3-7-2.5
				c0.1,0.2,0.1,0.5,0,0.8c-0.1,0.3-0.3,0.5-0.6,0.6l-0.1,0c-1,0.4-2.3,1-4.5,1c-1.8,0-3.1-0.4-4.1-1.3c-1.6-1.4-1.3-3.2-1.1-3.9
				l0.8-4.7H109l-5.9,9.1c-0.2,0.3-0.5,0.5-0.9,0.5h-1.5c-0.4,0-0.8-0.3-1-0.7l-2.2-5.3l-4.2,5.5c-0.2,0.3-0.5,0.4-0.9,0.4H91
				c-0.5,0-0.9-0.3-1-0.8l-0.4-1.3l-2.9,12.8c-0.3,1.3,0.5,2.6,1.8,2.9l48.6,11.2c1.3,0.3,2.6-0.5,2.9-1.8l8.6-37.3
				C148.8,78.5,148,77.3,146.7,77z"/>
			<g>
				<path class="st0" d="M124.4,85.4L124.4,85.4c-0.1,0.1-0.2,0.3-0.3,1.1c-0.1,0.3-0.1,0.5-0.1,0.7h10.8c0.2-1.3,0.5-3.6-1.3-5.2
					c-1.6-1.5-4-1.6-5.4-1.6c-3.5,0-6.2,1.2-7.8,3c-0.3,0.4-0.6,0.8-0.9,1.2c-0.4,0.7-0.7,1.5-0.8,2.3c-0.6,3.7,1.8,6.7,7.4,6.7
					c5.3,0,7-2.5,7.9-3.8l-0.9-0.4c-1.2,1.1-2.6,2.2-5.4,2.2c-4.1,0-4.7-2.4-4.7-3.7c0,0-0.1-0.3,0-1.1c0.1-0.9,0.3-1.2,0.4-1.2
					c0.7-1.4,1.5-3,4.4-3c3,0,3,2,3,3.1H124.4z"/>
			</g>
			<g>
				<path class="st0" d="M115.1,81l0.6-3.3h-4l-0.6,3.3h-4.3l-3.7,6l-0.6,1.1c-0.2-0.6-0.2-0.8-0.4-1.3L100,81h-1.3l-5.2,7.1
					c-0.1-0.6-0.1-0.7-0.3-1.3l-1.2-4.6L90.1,90l0.9,3.1h1.5l5.3-7l2.9,7h1.5l6.2-9.6h2.2l-1,6c-0.2,1.1-0.2,2.1,0.8,3
					c1,0.9,2.6,1,3.4,1c2,0,3.2-0.5,4.2-1l-0.4-0.8c-0.5,0.1-1,0.2-1.6,0.2c-0.3,0-1.5,0-2.1-1.1c-0.2-0.4-0.3-0.9-0.2-1.9l0.9-5.5
					h4.1h0.4l0.1-0.6l0.3-1.9H115.1z"/>
			</g>
		</g>
	</g>
	<g>
		<path class="st0" d="M52.5,77.7h-4l-2,11.8c-0.2,1.1-0.2,2.1,0.8,3c1,0.9,2.6,1,3.4,1c2,0,3.2-0.5,4.2-1l-0.4-0.8
			c-0.5,0.1-1,0.2-1.6,0.2c-0.3,0-1.5,0-2.1-1.1c-0.2-0.4-0.3-0.9-0.2-1.9l0.9-5.5h3.3l0.4-2.5h-3.3L52.5,77.7z"/>
	</g>
	<path class="st4" d="M26.1,69.5c-8.5,0-15.4,6.9-15.4,15.4s6.9,15.4,15.4,15.4c8.5,0,15.4-6.9,15.4-15.4S34.7,69.5,26.1,69.5z
		 M26.1,97.3c-6.8,0-12.4-5.5-12.4-12.4c0-6.8,5.5-12.4,12.4-12.4c6.8,0,12.4,5.5,12.4,12.4C38.5,91.8,33,97.3,26.1,97.3z
		 M27.6,77.4h-4l-2,11.8c-0.2,1.1-0.2,2.1,0.8,3c1,0.9,2.6,1,3.4,1c2,0,3.2-0.5,4.2-1l-0.4-0.8c-0.5,0.1-1,0.2-1.6,0.2
		c-0.3,0-1.5,0-2.1-1.1c-0.2-0.4-0.3-0.9-0.2-1.9l0.9-5.5h3.3l0.4-2.5h-3.3L27.6,77.4z"/>
	<g>
		<g>
			<path class="st0" d="M6.6,25l4.6-0.2c0.1,1.5,0.3,2.4,0.7,2.9c0.7,0.8,2,1.2,3.9,1.2c1.6,0,2.7-0.3,3.4-0.8
				c0.7-0.6,1.1-1.2,1.1-2c0-0.7-0.3-1.3-0.9-1.8c-0.4-0.4-1.5-0.9-3.3-1.7c-1.8-0.8-3.1-1.4-4-2c-0.8-0.5-1.5-1.2-2-2
				s-0.7-1.8-0.7-2.9c0-2,0.7-3.6,2.1-4.9s3.5-1.9,6.2-1.9c2.7,0,4.9,0.6,6.4,1.9s2.3,3,2.5,5.1L22,16c-0.1-1.1-0.5-2-1.2-2.6
				c-0.7-0.6-1.7-0.9-3.1-0.9c-1.3,0-2.3,0.2-2.8,0.7C14.3,13.7,14,14.3,14,15c0,0.7,0.3,1.2,0.8,1.7c0.5,0.4,1.7,1.1,3.5,1.8
				c2.7,1.2,4.4,2.1,5.1,2.8c1.1,1.1,1.6,2.4,1.6,4.1c0,2.1-0.8,3.8-2.4,5.3s-3.9,2.2-6.8,2.2c-2,0-3.7-0.3-5.2-1
				c-1.5-0.7-2.5-1.6-3.1-2.8S6.5,26.5,6.6,25z"/>
		</g>
		<g>
			<path class="st0" d="M44.1,25.5H32.6c0,0.2,0,0.3,0,0.4c0,1.1,0.3,2,1,2.7c0.6,0.7,1.4,1,2.4,1c1.5,0,2.7-0.8,3.6-2.4l4.1,0.7
				c-0.8,1.6-1.9,2.9-3.2,3.7c-1.3,0.8-2.8,1.2-4.5,1.2c-2.3,0-4.1-0.7-5.5-2.2c-1.4-1.4-2.1-3.3-2.1-5.7c0-2.3,0.6-4.4,1.9-6.2
				c1.8-2.4,4.3-3.7,7.5-3.7c2.1,0,3.7,0.6,4.9,1.9c1.2,1.3,1.8,3.1,1.8,5.4C44.4,23.6,44.3,24.6,44.1,25.5z M40.2,22.7
				c0-0.2,0-0.4,0-0.5c0-1.3-0.3-2.2-0.8-2.8c-0.6-0.6-1.3-0.9-2.3-0.9s-1.8,0.4-2.5,1.1s-1.3,1.8-1.5,3.2H40.2z"/>
		</g>
		<g>
			<path class="st0" d="M57.2,26.1l4.4,0.7c-0.7,2-1.8,3.5-3.3,4.5s-3.1,1.5-5,1.5c-2.2,0-3.9-0.6-5.1-1.9c-1.3-1.3-1.9-3.1-1.9-5.3
				c0-1.8,0.4-3.6,1.1-5.2s1.9-2.9,3.5-3.9s3.2-1.4,5.1-1.4c2,0,3.6,0.5,4.8,1.6c1.2,1,1.9,2.4,2,4.1l-4.4,0.5
				c-0.1-0.9-0.4-1.6-0.9-2.1c-0.5-0.4-1.1-0.7-1.9-0.7c-0.9,0-1.7,0.3-2.5,1c-0.8,0.7-1.4,1.6-1.8,3c-0.4,1.3-0.6,2.5-0.6,3.7
				c0,1,0.2,1.8,0.7,2.3s1.1,0.8,1.8,0.8s1.4-0.3,2.1-0.8S56.9,27.2,57.2,26.1z"/>
		</g>
		<g>
			<path class="st0" d="M67.4,15.6H72l-2.1,10c-0.3,1.2-0.4,2-0.4,2.2c0,0.5,0.2,0.9,0.5,1.3s0.8,0.5,1.4,0.5c0.4,0,0.8-0.1,1.2-0.2
				c0.4-0.2,0.8-0.4,1.2-0.7s0.8-0.7,1.1-1.1c0.3-0.4,0.6-0.9,0.9-1.6c0.2-0.5,0.4-1.3,0.7-2.4l1.7-8.1h4.6l-3.5,16.9H75l0.5-2.3
				c-1.9,1.8-3.9,2.7-6.1,2.7c-1.4,0-2.5-0.4-3.3-1.2c-0.8-0.8-1.2-1.9-1.2-3.2c0-0.6,0.2-1.7,0.5-3.5L67.4,15.6z"/>
		</g>
		<g>
			<path class="st0" d="M87.1,15.6h4.3l-0.7,3.3c1.6-2.5,3.3-3.7,5.2-3.7c0.7,0,1.4,0.2,2.1,0.5l-1.8,3.7c-0.4-0.1-0.9-0.2-1.3-0.2
				c-0.8,0-1.6,0.3-2.4,0.9s-1.4,1.4-1.9,2.4c-0.5,1-0.9,2.6-1.4,4.7l-1.1,5.3h-4.6L87.1,15.6z"/>
		</g>
		<g>
			<path class="st0" d="M113.1,25.5h-11.5c0,0.2,0,0.3,0,0.4c0,1.1,0.3,2,1,2.7c0.6,0.7,1.4,1,2.4,1c1.5,0,2.7-0.8,3.6-2.4l4.1,0.7
				c-0.8,1.6-1.9,2.9-3.2,3.7c-1.3,0.8-2.8,1.2-4.5,1.2c-2.3,0-4.1-0.7-5.5-2.2c-1.4-1.4-2.1-3.3-2.1-5.7c0-2.3,0.6-4.4,1.9-6.2
				c1.8-2.4,4.3-3.7,7.5-3.7c2.1,0,3.7,0.6,4.9,1.9c1.2,1.3,1.8,3.1,1.8,5.4C113.4,23.6,113.3,24.6,113.1,25.5z M109.2,22.7
				c0-0.2,0-0.4,0-0.5c0-1.3-0.3-2.2-0.8-2.8c-0.6-0.6-1.3-0.9-2.3-0.9s-1.8,0.4-2.5,1.1s-1.3,1.8-1.5,3.2H109.2z"/>
		</g>
		<g>
			<path class="st0" d="M130.4,32.5H126l0.4-1.8c-0.8,0.8-1.6,1.4-2.4,1.7c-0.8,0.3-1.7,0.5-2.7,0.5c-1.8,0-3.2-0.6-4.3-1.8
				c-1.1-1.2-1.6-3-1.6-5.3c0-2.7,0.8-5.2,2.3-7.4s3.6-3.3,6.1-3.3c2.3,0,4,0.9,5.1,2.7l1.8-8.8h4.6L130.4,32.5z M119.8,25.6
				c0,1.2,0.3,2.2,0.9,2.8c0.6,0.7,1.4,1,2.3,1c0.8,0,1.6-0.3,2.3-0.9c0.7-0.6,1.3-1.4,1.7-2.6c0.4-1.2,0.6-2.3,0.6-3.4
				c0-1.2-0.3-2.2-1-3c-0.7-0.8-1.4-1.1-2.3-1.1c-1.3,0-2.4,0.7-3.3,2.2C120.2,22.3,119.8,23.9,119.8,25.6z"/>
		</g>
	</g>
	<g>
		<g>
			<path class="st0" d="M53.4,65.6l4.2-20.3h4l-1.4,6.8c0.7-0.6,1.4-0.9,2-1.2c0.6-0.2,1.3-0.4,2.1-0.4c1.6,0,2.8,0.5,3.7,1.6
				c0.9,1,1.4,2.6,1.4,4.5c0,1.3-0.2,2.6-0.7,3.9c-0.4,1.3-1,2.3-1.8,3.1c-0.7,0.8-1.5,1.4-2.3,1.8s-1.7,0.6-2.5,0.6
				c-2.1,0-3.7-0.9-4.6-2.8L57,65.6H53.4z M58.8,59.6c0,1,0.3,1.8,0.8,2.4c0.6,0.6,1.2,0.9,2,0.9c0.7,0,1.3-0.2,1.9-0.7
				c0.6-0.5,1.1-1.2,1.5-2.3c0.4-1.1,0.6-2.1,0.6-3.2c0-1-0.3-1.9-0.8-2.5s-1.2-0.9-2-0.9c-1,0-1.9,0.5-2.6,1.4
				C59.2,56,58.8,57.6,58.8,59.6z"/>
		</g>
		<g>
			<path class="st0" d="M72.1,50.9h4l1,7.3c0.2,1.9,0.4,3.2,0.4,4c0.5-1.5,1.2-3.1,2.1-4.8l3.5-6.5h4.2L78.2,67
				c-0.7,1.3-1.3,2.3-1.8,2.8c-0.4,0.5-0.9,1-1.6,1.3s-1.3,0.5-2.2,0.5c-0.8,0-1.8-0.1-2.8-0.4l0.3-3c0.5,0.1,0.9,0.2,1.4,0.2
				c1.2,0,2.2-0.9,3-2.8L72.1,50.9z"/>
		</g>
	</g>
	<g>
		<path class="st0" d="M116,92c-0.3,0-1.5,0-2.1-1.1c-0.2-0.4-0.3-0.9-0.2-1.9l0.9-5.5h4.4l0.4-2.6h-4.4l0.6-3.3h-4l-0.6,3.3h-4.3
			l-3.7,6l-0.6,1.1c-0.2-0.6-0.2-0.8-0.4-1.3L100,81h-1.3l-5.2,7.1c-0.1-0.6-0.1-0.7-0.3-1.3L91.5,81h-4.2L91,93.1h1.5l5.3-7l2.9,7
			h1.5l6.2-9.6h2.2l-1,6c-0.2,1.1-0.2,2.1,0.8,3c1,0.9,2.6,1,3.4,1c2,0,3.2-0.5,4.2-1l-0.4-0.8C117.1,91.8,116.6,92,116,92z"/>
	</g>
	<path class="st5" d="M140,117.1l5.2-22.9c-22.6,11.7-42.5,13.4-58.4,12.1c0.3,0.7,0.9,1.2,1.7,1.4l48.6,11.2
		C138.4,119.2,139.7,118.4,140,117.1z"/>
</g>
</svg>
