<?xml version="1.0" encoding="UTF-8" standalone="no"?>
<!DOCTYPE svg PUBLIC "-//W3C//DTD SVG 1.1//EN" "http://www.w3.org/Graphics/SVG/1.1/DTD/svg11.dtd">
<svg width="31.48" height="20" viewBox="0 0 209 131" version="1.1" xmlns="http://www.w3.org/2000/svg" xmlns:xlink="http://www.w3.org/1999/xlink" xml:space="preserve" xmlns:serif="http://www.serif.com/" style="fill-rule:evenodd;clip-rule:evenodd;stroke-linejoin:round;stroke-miterlimit:1.41421;">
    <g transform="matrix(1,0,0,1,-202.512,-331.463)">
        <g transform="matrix(1,0,0,1,0,112.278)">
            <rect x="202.512" y="330.501" width="208.802" height="18.72" style="fill:rgb(247,182,0);"/>
        </g>
        <g transform="matrix(1,0,0,1,0,-110.354)">
            <rect x="202.512" y="441.817" width="208.802" height="18.72" style="fill:rgb(26,31,113);"/>
        </g>
        <g transform="matrix(1,0,0,1,305.112,422.131)">
            <path d="M0,-51.323L-11.006,0.132L-24.318,0.132L-13.311,-51.323L0,-51.323ZM56.004,-18.097L63.012,-37.421L67.043,-18.097L56.004,-18.097ZM70.863,0.132L83.172,0.132L72.418,-51.323L61.063,-51.323C58.504,-51.323 56.348,-49.839 55.393,-47.551L35.418,0.132L49.398,0.132L52.174,-7.552L69.25,-7.552L70.863,0.132ZM36.111,-16.667C36.17,-30.246 17.34,-30.999 17.465,-37.066C17.506,-38.91 19.264,-40.874 23.109,-41.376C25.016,-41.622 30.275,-41.82 36.238,-39.073L38.57,-49.989C35.367,-51.147 31.246,-52.263 26.119,-52.263C12.959,-52.263 3.701,-45.273 3.627,-35.255C3.543,-27.847 10.24,-23.717 15.275,-21.25C20.467,-18.728 22.207,-17.11 22.182,-14.857C22.146,-11.405 18.041,-9.877 14.221,-9.819C7.523,-9.715 3.643,-11.629 0.549,-13.071L-1.867,-1.791C1.248,-0.365 6.988,0.876 12.932,0.94C26.922,0.94 36.07,-5.969 36.111,-16.667M-19.021,-51.323L-40.59,0.132L-54.66,0.132L-65.275,-40.933C-65.918,-43.458 -66.479,-44.386 -68.436,-45.453C-71.637,-47.192 -76.922,-48.818 -81.568,-49.83L-81.254,-51.323L-58.602,-51.323C-55.717,-51.323 -53.121,-49.403 -52.461,-46.08L-46.854,-16.302L-33.006,-51.323L-19.021,-51.323Z" style="fill:rgb(26,31,113);fill-rule:nonzero;"/>
        </g>
    </g>
</svg>
