<svg xmlns="http://www.w3.org/2000/svg" xmlns:xlink="http://www.w3.org/1999/xlink" width="64" height="64"
     viewBox="0 0 64 64" shape-rendering="geometricPrecision">
    <defs>
        <path id="a" d="M2.07 9.251c.408-.227.82-.453 1.236-.678 3.992-2.164 8.26-4.207 12.526-6.07A176.022 176.022 0 0 1 21.118.298l.421-.164a2 2 0 0 1 1.434 0l.42.164a176.016 176.016 0 0 1 5.286 2.206c4.267 1.863 8.535 3.906 12.527 6.07.416.225.828.451 1.235.678a2 2 0 0 1 .974 1.29 41.41 41.41 0 0 1 1.097 9.467c0 13.763-8.298 23.708-21.428 29.678a2 2 0 0 1-1.656 0C8.298 43.716 0 33.771 0 20.008c0-3.207.373-6.384 1.097-9.467a2 2 0 0 1 .974-1.29zM4 20.008c0 11.687 6.91 20.245 18.256 25.652C33.6 40.253 40.512 31.695 40.512 20.008c0-2.6-.272-5.18-.8-7.695l-.412-.224c-3.882-2.104-8.05-4.1-12.22-5.92a172.034 172.034 0 0 0-4.824-2.02 172.04 172.04 0 0 0-4.824 2.02c-4.17 1.821-8.339 3.817-12.22 5.92l-.412.224a37.41 37.41 0 0 0-.8 7.695zm11.789 2.961l4.608 4.49 9.607-9.277a2 2 0 0 1 2.778 2.877L21.78 31.684a2 2 0 0 1-2.785-.006l-5.998-5.844a2 2 0 0 1 2.792-2.865z"/>
    </defs>
    <g fill="none" fill-rule="evenodd" transform="translate(10 7)">
        <mask id="b" fill="#fff">
            <use xlink:href="#a"/>
        </mask>
        <use fill="#000" fill-rule="nonzero" xlink:href="#a"/>
        <g fill="#90A4AE" mask="url(#b)">
            <path d="M-10-7h64v64h-64z"/>
        </g>
    </g>
</svg>
