<svg xmlns="http://www.w3.org/2000/svg" width="53" height="36" viewBox="0 0 53 36"><g><g><path fill="#696666" d="M52.407 32.462c.136.089.248.2.332.325a.96.96 0 0 1 .155.405.908.908 0 0 1-.044.423 1.037 1.037 0 0 1-.238.377l-.823.85a1.287 1.287 0 0 1-.393.273 1.585 1.585 0 0 1-1.002.092 1.433 1.433 0 0 1-.456-.196L.725 3.218c-.136-.089-.248-.2-.332-.325a.96.96 0 0 1-.155-.405.908.908 0 0 1 .044-.423c.049-.138.13-.266.238-.378l.823-.849c.108-.111.241-.204.393-.273A1.583 1.583 0 0 1 2.738.473c.166.04.32.106.455.196zm-27.751-22.07a11.11 11.11 0 0 1 1.91-.169c4.977 0 9 3.258 9.183 7.335zm3.82 14.898c-.628.11-1.268.166-1.91.167-4.976 0-9-3.258-9.183-7.334zM21.775 8.53l-3.82-2.468c2.71-.803 5.59-1.28 8.611-1.28 10.117 0 18.952 4.87 23.42 12.065.188.308.286.648.286.993 0 .344-.098.684-.287.992a23.255 23.255 0 0 1-4.353 5.108l-3.106-2.006a20.095 20.095 0 0 0 3.621-4.094c-4.02-6.053-11.462-9.793-19.581-9.793-1.636 0-3.233.19-4.791.483zm9.582 18.62l3.82 2.468c-2.71.8-5.59 1.28-8.611 1.28-10.116 0-18.951-4.87-23.414-12.065a1.897 1.897 0 0 1-.287-.993c0-.344.098-.684.287-.992a23.248 23.248 0 0 1 4.352-5.108l3.106 2.007a20.096 20.096 0 0 0-3.625 4.093c4.02 6.053 11.462 9.793 19.581 9.793 1.637 0 3.233-.19 4.791-.482z"/></g></g></svg>