<svg xmlns="http://www.w3.org/2000/svg" width="44" height="30" viewBox="0 0 44 30"><g><g><path fill="#ca583e" d="M26.994 7.574a8.506 8.506 0 0 1 .172 13.727 8.542 8.542 0 0 1-13.174-3.929 8.506 8.506 0 0 1-.166-5.232c.63.357 1.34.547 2.063.552a4.285 4.285 0 0 0 3.952-2.636 4.264 4.264 0 0 0 .326-1.634 4.22 4.22 0 0 0-.553-2.06A8.487 8.487 0 0 1 22 5.983a8.543 8.543 0 0 1 4.994 1.592zM44 14.523c0 .386-.091.768-.266 1.113-4.14 8.066-12.344 13.53-21.734 13.53-9.39 0-17.592-5.46-21.734-13.53a2.464 2.464 0 0 1 0-2.226C4.406 5.344 12.609-.12 22-.12c9.39 0 17.592 5.46 21.734 13.53.175.345.266.726.266 1.113zm-3.825 0C36.445 7.735 29.536 3.54 22 3.54c-7.537 0-14.444 4.194-18.175 10.982C7.555 21.31 14.465 25.505 22 25.505c7.536 0 14.445-4.195 18.175-10.982z"/></g></g></svg>