<svg width="35" height="40" fill="none" xmlns="http://www.w3.org/2000/svg"><path fill-rule="evenodd" clip-rule="evenodd" d="M29.13 1.6C29.724.76 30.523.288 31.357.285c.834-.003 1.635.463 2.23 1.297.596.835.938 1.971.952 3.164.014 1.192-.3 2.344-.876 3.207l-16.89 30.192a3.5 3.5 0 01-1.03 1.055 2.4 2.4 0 01-1.238.395c-.426.011-.85-.1-1.246-.329a3.36 3.36 0 01-1.056-1L1.01 22.256a4.868 4.868 0 01-.735-1.472A6.226 6.226 0 010 19.017a6.297 6.297 0 01.231-1.78 5.05 5.05 0 01.698-1.51c.302-.43.66-.77 1.056-.998.395-.228.818-.34 1.244-.33.426.011.847.145 1.236.393.39.248.74.605 1.03 1.051l8.86 12.664L29.05 1.733a1.37 1.37 0 01.085-.133h-.004z" fill="#CA583E"/></svg>