<svg width="100%" height="100%" viewBox="0 0 26 26" version="1.1" xmlns="http://www.w3.org/2000/svg" xml:space="preserve"  style="fill-rule:evenodd;clip-rule:evenodd;stroke-linejoin:round;stroke-miterlimit:1.41421;">
    <g transform="matrix(1,0,0,1,-94.9896,-9.00103)">
        <g transform="matrix(0.357875,0,0,0.357875,-2367.99,-437.505)">
            <path d="M6953.76,1305.45C6953.63,1312.66 6947.48,1319.1 6939.98,1319.23L6882.29,1319.24C6882.29,1300.01 6882.17,1280.78 6882.29,1261.55C6882.42,1254.31 6888.67,1247.81 6896.24,1247.76L6918.05,1247.76L6918.05,1255.19C6910.72,1255.19 6903.4,1255.04 6896.08,1255.19C6892.75,1255.29 6889.78,1258.24 6889.71,1261.64L6889.71,1311.81C6906.47,1311.81 6923.22,1312.11 6939.97,1311.81C6943.33,1311.71 6946.31,1308.69 6946.33,1305.26L6946.33,1283.9L6953.76,1283.9C6953.76,1291.09 6953.8,1298.27 6953.76,1305.45Z" style="fill:rgb(0,64,67);fill-rule:nonzero;"/>
        </g>
        <g transform="matrix(0.442905,0,0,0.442902,-2333.21,-1388.03)">
            <path d="M5530.3,3160.33L5517.53,3160.33L5517.53,3154.33C5524.17,3154.33 5530.81,3154.16 5537.45,3154.33C5537.96,3154.37 5538.1,3154.42 5538.36,3154.53C5539.51,3154.96 5540.25,3155.87 5540.29,3157.33L5540.29,3178.15L5534.29,3178.15L5534.29,3164.82L5519.64,3179.31L5515.42,3175.04L5530.3,3160.33Z" style="fill:rgb(0,204,215);"/>
        </g>
    </g>
</svg>
