<svg xmlns="http://www.w3.org/2000/svg" width="48" height="48" viewBox="0 0 48 48">
    <g fill="none" fill-rule="evenodd">
        <path d="M0 0h48v48H0z"/>
        <path fill="#FF5F00" d="M20.843 30.147h7.269V16.965h-7.269z"/>
        <path fill="#EB001B" d="M21.304 23.556a8.397 8.397 0 0 1 3.173-6.591 8.224 8.224 0 0 0-5.134-1.792c-4.588 0-8.307 3.753-8.307 8.383 0 4.63 3.72 8.384 8.307 8.384 1.938 0 3.721-.67 5.134-1.793a8.397 8.397 0 0 1-3.173-6.59"/>
        <path fill="#F79E1B" d="M37.659 28.751v-.325h-.084l-.097.224-.097-.224h-.084v.325h.06v-.245l.09.211h.062l.09-.212v.246h.06zm-.533 0v-.27h.108v-.055h-.275v.055h.108v.27h.059zm.792-5.195c0 4.63-3.719 8.384-8.307 8.384-1.938 0-3.72-.67-5.134-1.793a8.397 8.397 0 0 0 3.173-6.59 8.397 8.397 0 0 0-3.173-6.592 8.224 8.224 0 0 1 5.134-1.792c4.588 0 8.307 3.753 8.307 8.383z"/>
    </g>
</svg>
