<svg xmlns="http://www.w3.org/2000/svg" width="48" height="48" viewBox="0 0 48 48">
    <g fill="none" fill-rule="evenodd">
        <path fill="#004F8B" d="M18.071 29.802l2.022-11.6h3.234l-2.023 11.6H18.07M33.033 18.487A8.52 8.52 0 0 0 30.134 18c-3.195 0-5.446 1.573-5.465 3.828-.018 1.667 1.607 2.597 2.834 3.152 1.258.568 1.682.931 1.675 1.439-.008.777-1.005 1.133-1.934 1.133-1.295 0-1.982-.176-3.044-.61l-.417-.184-.454 2.597c.756.324 2.152.605 3.602.62 3.4 0 5.607-1.556 5.632-3.964.012-1.32-.85-2.324-2.715-3.152-1.13-.537-1.823-.895-1.816-1.438 0-.482.586-.998 1.852-.998a6.082 6.082 0 0 1 2.42.445l.29.133.439-2.514M41.325 18.213h-2.499c-.774 0-1.353.206-1.693.962L32.33 29.806h3.396s.555-1.43.681-1.743l4.141.005c.097.406.394 1.738.394 1.738h3l-2.617-11.593m-3.987 7.477a2510.8 2510.8 0 0 0 1.288-3.243c-.02.03.266-.672.429-1.107l.218 1 .749 3.35h-2.684M15.36 18.21l-3.167 7.91-.337-1.607c-.59-1.853-2.426-3.861-4.48-4.866l2.896 10.145 3.421-.004 5.092-11.578h-3.426"/>
        <path fill="#ED9F2D" d="M9.256 18.203H4.04L4 18.444c4.057.96 6.741 3.28 7.856 6.07l-1.134-5.332c-.196-.734-.764-.954-1.466-.98"/>
    </g>
</svg>
