<svg width="24" height="24" fill="none" xmlns="http://www.w3.org/2000/svg"><path d="M18 21v-1.5h1.5V21H18zm-4.5-3v-1.5H15V18h-1.5zm0 4.5h3V21H15v-1.5h-1.5v3zm6-3v-3H21v3h-1.5zm1.5 0h1.5v3h-3V21H21v-1.5zM19.5 15v-1.5h3v3H21V15h-1.5zM18 15h-1.5v3H15v1.5h3V15zm-4.5 0v-1.5h3V15h-3zm-9 1.5h3v3h-3v-3z" fill="#CA583E"/><path d="M10.5 22.5h-9v-9h9v9zM3 21h6v-6H3v6zM16.5 4.5h3v3h-3v-3z" fill="#CA583E"/><path d="M22.5 10.5h-9v-9h9v9zM15 9h6V3h-6v6zM4.5 4.5h3v3h-3v-3z" fill="#CA583E"/><path d="M10.5 10.5h-9v-9h9v9zM3 9h6V3H3v6z" fill="#CA583E"/></svg>