<svg xmlns="http://www.w3.org/2000/svg" width="48" height="48" viewBox="0 0 48 48" shape-rendering="geometricPrecision">
    <g fill="none" fill-rule="evenodd">
        <path d="M0 0h48v48H0z"/>
        <path fill="#CFD8DC"
              d="M24 17.755a8.243 8.243 0 0 0-3.069 6.44A8.243 8.243 0 0 0 24 30.635a8.243 8.243 0 0 0 3.069-6.44A8.242 8.242 0 0 0 24 17.755zM28.966 16a7.885 7.885 0 0 0-4.448 1.37c.065.054.131.108.194.164a8.904 8.904 0 0 1 2.978 6.661 8.904 8.904 0 0 1-2.978 6.661c-.063.056-.13.11-.194.165a7.887 7.887 0 0 0 4.448 1.37c4.437 0 8.034-3.67 8.034-8.196S33.403 16 28.966 16zm-5.678 14.856c.063.056.13.11.194.165a7.884 7.884 0 0 1-4.448 1.37c-4.437 0-8.034-3.67-8.034-8.196S14.597 16 19.034 16c1.645 0 3.175.504 4.448 1.37-.065.054-.13.108-.194.164a8.905 8.905 0 0 0-2.978 6.661 8.904 8.904 0 0 0 2.978 6.661z"/>
    </g>
</svg>
