<svg xmlns="http://www.w3.org/2000/svg" xmlns:xlink="http://www.w3.org/1999/xlink" width="48" height="48"
     viewBox="0 0 48 48" shape-rendering="geometricPrecision">
    <defs>
        <path id="a"
              d="M.044 6C.044 4.11.05 2.224.038.333c0-.224.05-.285.29-.285C1.494.061 2.66.055 3.826.055c1.185 0 1.866.448 2.226 1.545.516 1.6.996 3.206 1.494 4.812l.17.552c.031.097.031.242.189.236.132-.006.132-.14.164-.23.29-.94.58-1.88.863-2.812.253-.825.498-1.649.763-2.467.252-.8.712-1.418 1.626-1.6a2.27 2.27 0 0 1 .404-.036c1.242 0 2.477.006 3.72-.007.22 0 .302.025.302.273-.013 3.776-.007 7.558 0 11.334 0 .224-.057.284-.29.284a115.937 115.937 0 0 0-3.247 0c-.264.006-.302-.084-.302-.309.006-2.12.006-4.242.006-6.363v-.182c0-.11.013-.237-.151-.255-.158-.018-.22.08-.259.206-.246.752-.491 1.503-.737 2.249-.48 1.46-.965 2.921-1.437 4.388-.064.194-.133.272-.36.266a42.115 42.115 0 0 0-2.143 0c-.22.006-.303-.06-.366-.26-.706-2.176-1.418-4.352-2.13-6.521a1.265 1.265 0 0 0-.101-.255c-.044-.079-.133-.097-.22-.073-.083.018-.12.073-.127.152v.212c0 2.14-.006 4.285.006 6.424 0 .249-.063.321-.327.321a113.697 113.697 0 0 0-3.215 0c-.259.006-.303-.078-.303-.303C.05 9.758.044 7.88.044 6zm29.747-.006c0 1.879-.006 3.758.007 5.636 0 .26-.082.315-.334.31a142.119 142.119 0 0 0-3.215 0c-.234 0-.303-.05-.297-.28.013-2.181.007-4.363.007-6.545 0-.097.031-.206-.038-.297-.107-.127-.296-.054-.397.17-.448.945-.889 1.897-1.337 2.842-.472.994-.939 1.982-1.418 2.97-.107.218-.252.418-.39.618-.26.352-.593.534-1.066.527a137.082 137.082 0 0 0-3.53 0c-.215 0-.284-.042-.284-.26.006-3.788.006-7.576 0-11.364 0-.218.063-.266.284-.266 1.084.012 2.162.012 3.246 0 .246 0 .315.054.315.297-.012 2.139-.006 4.284-.006 6.424 0 .09 0 .182.013.272.012.085.075.116.157.116.126.006.19-.067.234-.164.195-.4.397-.8.592-1.2.731-1.479 1.456-2.952 2.187-4.43a6.44 6.44 0 0 1 .366-.637c.309-.46.712-.709 1.336-.685 1.078.043 2.163.025 3.247.007.296-.007.334.09.334.339-.013 1.86-.013 3.733-.013 5.6zm6.033-5.94c1.387 0 2.774-.006 4.16 0 .952.007 1.79.352 2.49.958 1.091.946 1.589 2.127 1.444 3.546-.013.151.019.327-.252.327-2.257-.024-4.514.048-6.77-.043A6.512 6.512 0 0 1 33.933 4c-1.488-.842-2.395-2.085-2.73-3.715-.05-.237.07-.237.246-.237 1.456.013 2.913.007 4.375.007zm1.866 5.413h5.673c.353 0 .36.006.202.303-.788 1.485-2.023 2.32-3.776 2.357-1.292.03-2.584.006-3.877.006-.504 0-.428-.03-.428.43 0 1.03-.007 2.061.006 3.092 0 .218-.038.297-.29.29-1.09-.012-2.187-.012-3.278 0-.202 0-.271-.042-.271-.248.006-1.988.006-3.982 0-5.97 0-.23.107-.254.303-.254 1.91-.006 3.82-.006 5.736-.006z"/>
    </defs>
    <g fill="none" fill-rule="evenodd" transform="translate(2 19)">
        <mask id="b" fill="#fff">
            <use xlink:href="#a"/>
        </mask>
        <use fill="#FFF" xlink:href="#a"/>
        <g fill="#CFD8DC" mask="url(#b)">
            <path d="M-2-19h48v48H-2z"/>
        </g>
    </g>
</svg>
