<svg xmlns="http://www.w3.org/2000/svg" xmlns:xlink="http://www.w3.org/1999/xlink" width="48" height="48"
     viewBox="0 0 48 48" shape-rendering="geometricPrecision">
    <defs>
        <path id="a"
              d="M13.063.245h3.94l-5.856 13.508-3.934.005L3.883 1.92C6.245 3.094 8.356 5.436 9.034 7.6l.388 1.875L13.063.245zm3.12 13.524L18.506.235h3.72L19.898 13.77h-3.717zM33.387.57l-.505 2.933-.333-.157a6.907 6.907 0 0 0-2.783-.518c-1.456 0-2.13.601-2.13 1.164-.008.634.788 1.052 2.088 1.678 2.145.966 3.136 2.138 3.122 3.677-.029 2.81-2.566 4.624-6.476 4.624-1.667-.017-3.274-.344-4.143-.722l.522-3.03.48.215c1.221.506 2.012.71 3.5.71 1.07 0 2.216-.414 2.225-1.321.007-.592-.48-1.015-1.927-1.679-1.41-.647-3.28-1.732-3.259-3.677C23.791 1.836 26.38 0 30.054 0c1.442 0 2.597.294 3.334.568zm9.536-.32H40.05c-.89 0-1.556.24-1.947 1.121L32.58 13.774h3.905s.639-1.668.783-2.034l4.763.005c.111.474.452 2.029.452 2.029h3.451L42.924.248m-4.586 8.723c.308-.78 1.482-3.783 1.482-3.783-.022.036.305-.783.493-1.292l.251 1.167s.713 3.231.861 3.908h-3.087zM6.044.237c.808.03 1.46.285 1.686 1.142L9.034 7.6C7.753 4.346 4.666 1.639 0 .519L.048.236h5.996z"/>
    </defs>
    <g fill="none" fill-rule="evenodd" transform="translate(1 17)">
        <mask id="b" fill="#fff">
            <use xlink:href="#a"/>
        </mask>
        <use fill="#FFF" xlink:href="#a"/>
        <g fill="#CFD8DC" mask="url(#b)">
            <path d="M-1-17h48v48H-1z"/>
        </g>
    </g>
</svg>
