<svg width="24" height="24" fill="none" xmlns="http://www.w3.org/2000/svg"><path d="M19.5 4.5H3v2.378l5.557 5.565.443.434V19.5h3V18h1.5v1.5A1.5 1.5 0 0112 21H9a1.5 1.5 0 01-1.5-1.5v-6L1.942 7.942A1.5 1.5 0 011.5 6.878V4.5A1.5 1.5 0 013 3h16.5v1.5z" fill="#CA583E"/><path d="M22.282 8.467l-2.25-2.25a.75.75 0 00-1.064 0L12 13.193V16.5h3.307l6.975-6.968a.75.75 0 000-1.065zM14.692 15H13.5v-1.193l3.75-3.75 1.192 1.193-3.75 3.75zm4.808-4.807L18.308 9 19.5 7.807 20.692 9 19.5 10.193z" fill="#CA583E"/></svg>