<svg width="25" height="24" fill="none" xmlns="http://www.w3.org/2000/svg"><path d="M21.068 12.57v-1.148l1.44-1.26a1.5 1.5 0 00.285-1.912l-1.77-3a1.5 1.5 0 00-1.297-.75 1.5 1.5 0 00-.48.075l-1.823.615a8.517 8.517 0 00-.982-.563l-.383-1.89a1.5 1.5 0 00-1.5-1.207h-3.51a1.5 1.5 0 00-1.5 1.207l-.382 1.89a8.61 8.61 0 00-.99.563L6.39 4.545a1.5 1.5 0 00-.48-.045 1.5 1.5 0 00-1.298.75l-1.77 3a1.5 1.5 0 00.308 1.882l1.417 1.298v1.147l-1.417 1.26a1.5 1.5 0 00-.308 1.913l1.77 3a1.5 1.5 0 001.298.75c.163.001.325-.024.48-.075l1.822-.615c.315.209.643.397.983.562l.382 1.89a1.5 1.5 0 001.5 1.208h3.54a1.5 1.5 0 001.5-1.208l.383-1.89a8.63 8.63 0 00.99-.562l1.815.615c.154.05.316.076.48.075a1.5 1.5 0 001.297-.75l1.71-3a1.5 1.5 0 00-.307-1.883l-1.418-1.297zM19.726 18l-2.573-.87c-.602.51-1.29.909-2.032 1.177L14.588 21h-3.54l-.532-2.663A7.018 7.018 0 018.49 17.16L5.91 18l-1.77-3 2.04-1.8a6.675 6.675 0 010-2.348L4.14 9l1.77-3 2.572.87a6.645 6.645 0 012.033-1.178L11.048 3h3.54l.533 2.662c.736.277 1.42.675 2.025 1.178l2.58-.84 1.77 3-2.04 1.8a6.679 6.679 0 010 2.347L21.496 15l-1.77 3z" fill="#CA583E"/><path d="M12.818 16.5a4.5 4.5 0 114.5-4.5 4.456 4.456 0 01-4.5 4.5zm0-7.5a2.933 2.933 0 00-3 3 2.932 2.932 0 003 3 2.933 2.933 0 003-3 2.931 2.931 0 00-3-3z" fill="#CA583E"/></svg>